<svg xmlns="http://www.w3.org/2000/svg" width="534.108" height="513.644" viewBox="-3 0 626 622"><style>text{font-family:&quot;Futura&quot;,Calibri,sans-serif;font-weight:500;font-size:30px;line-height:125%;fill:#000}ellipse{stroke:#000;stroke-width:.5px;fill-opacity:.3}.mRect{width:1000%;height:1000%;fill:#fff}.mEll,.masked{fill:#000;fill-opacity:1}.masked{fill:#ff4136}.tbon,.tcar{text-anchor:end}.tenv{text-anchor:middle}</style><defs><clipPath id="ccar"><ellipse transform="rotate(-104.77)" cx="-389.472" cy="306.191" rx="103.137" ry="244.345"/></clipPath><clipPath id="cenv"><ellipse transform="rotate(3.264)" cx="312.786" cy="226.983" rx="103.137" ry="244.345"/></clipPath><mask id="mbon"><rect class="mRect"/><ellipse class="mEll" transform="rotate(-32.771)" cx="98.11" cy="548.882" rx="103.137" ry="244.345"/></mask></defs><ellipse id="car" transform="rotate(-104.77)" cx="-389.472" cy="306.191" rx="103.137" ry="244.345" fill="#88a8ff"/><ellipse id="env" transform="rotate(3.264)" cx="312.786" cy="226.983" rx="103.137" ry="244.345" fill="#a8e9a8"/><ellipse id="bon" transform="rotate(-32.771)" cx="98.11" cy="548.882" rx="103.137" ry="244.345" fill="#ffff72"/><ellipse id="rec" transform="rotate(39.618)" cx="475.01" cy="154.915" rx="103.137" ry="244.345" fill="#fab5ff"/><g mask="url(#mbon)" clip-path="url(#ccar)"><ellipse transform="rotate(39.618)" cx="475.01" cy="154.915" rx="103.137" ry="244.345" class="masked"/></g><g mask="url(#mbon)" clip-path="url(#cenv)"><ellipse transform="rotate(39.618)" cx="475.01" cy="154.915" rx="103.137" ry="244.345" class="masked"/></g><text class="tenv" x="311" y="68">Ce que la</text><text class="tenv" x="311" dy="105">personne a</text><text class="tenv" x="306" dy="142">envie de faire</text><text class="tcar" x="630" y="240">Ce qui est bon</text><text class="tcar" x="630" y="277">pour la carrière</text><text class="tcar" x="630" y="314">de la personne</text><text class="trec" x="102" y="505">Ce qui est</text><text class="trec" x="102" y="542">valorisé par</text><text class="trec" x="102" y="579">l&apos;organisation</text><text class="tbon" x="553" y="505">Ce qui est</text><text class="tbon" x="553" y="542">bon pour</text><text class="tbon" x="553" y="579">l&apos;organisation</text></svg>