<?xml version="1.0" encoding="UTF-8" standalone="no"?>
<!DOCTYPE svg PUBLIC "-//W3C//DTD SVG 1.1//EN"
 "http://www.w3.org/Graphics/SVG/1.1/DTD/svg11.dtd">
<!-- Generated by graphviz version 2.40.1 (20161225.0304)
 -->
<!-- Title: skills Pages: 1 -->
<svg width="1403pt" height="3214pt"
 viewBox="0.00 0.00 1402.98 3214.00" xmlns="http://www.w3.org/2000/svg" xmlns:xlink="http://www.w3.org/1999/xlink">
<g id="graph0" class="graph" transform="scale(1 1) rotate(0) translate(4 3210)">
<title>skills</title>
<polygon fill="#ffffff" stroke="transparent" points="-4,4 -4,-3210 1398.9836,-3210 1398.9836,4 -4,4"/>
<text text-anchor="middle" x="697.4918" y="-3163.6" font-family="Times,serif" font-size="48.00" fill="#000000">What should an IS architect know?</text>
<g id="clust1" class="cluster">
<title>cluster_skill_details</title>
<polygon fill="none" stroke="#000000" stroke-width="2" points="28.6331,-8 28.6331,-1280 681.2064,-1280 681.2064,-8 28.6331,-8"/>
<text text-anchor="middle" x="354.9197" y="-1256.8" font-family="Times,serif" font-size="24.00" fill="#000000">Skills Descriptions</text>
</g>
<g id="clust6" class="cluster">
<title>cluster_0</title>
<polygon fill="none" stroke="#000000" points="220.3797,-2448 220.3797,-2522 1356.2906,-2522 1356.2906,-2448 220.3797,-2448"/>
<text text-anchor="middle" x="788.3351" y="-2506.8" font-family="Times,serif" font-size="14.00" fill="#000000">Deployment</text>
</g>
<g id="clust7" class="cluster">
<title>cluster_1</title>
<polygon fill="none" stroke="#000000" points="207.365,-2258 207.365,-2440 1386.9836,-2440 1386.9836,-2258 207.365,-2258"/>
<text text-anchor="middle" x="797.1743" y="-2424.8" font-family="Times,serif" font-size="14.00" fill="#000000">Cloud</text>
</g>
<g id="clust8" class="cluster">
<title>cluster_2</title>
<polygon fill="none" stroke="#000000" points="262.9043,-2530 262.9043,-2698 1348.6605,-2698 1348.6605,-2530 262.9043,-2530"/>
<text text-anchor="middle" x="805.7824" y="-2682.8" font-family="Times,serif" font-size="14.00" fill="#000000">Ops</text>
</g>
<g id="clust9" class="cluster">
<title>cluster_3</title>
<polygon fill="none" stroke="#000000" points="269.7615,-1470 269.7615,-1652 1332.6921,-1652 1332.6921,-1470 269.7615,-1470"/>
<text text-anchor="middle" x="801.2268" y="-1636.8" font-family="Times,serif" font-size="14.00" fill="#000000">Distributed Architecture</text>
</g>
<g id="clust10" class="cluster">
<title>cluster_4</title>
<polygon fill="none" stroke="#000000" points="236.1278,-1850 236.1278,-1978 1291.9293,-1978 1291.9293,-1850 236.1278,-1850"/>
<text text-anchor="middle" x="764.0286" y="-1962.8" font-family="Times,serif" font-size="14.00" fill="#000000">Data Architecture</text>
</g>
<g id="clust11" class="cluster">
<title>cluster_5</title>
<polygon fill="none" stroke="#000000" points="223.3592,-1660 223.3592,-1842 998.462,-1842 998.462,-1660 223.3592,-1660"/>
<text text-anchor="middle" x="610.9106" y="-1826.8" font-family="Times,serif" font-size="14.00" fill="#000000">IS Architecture</text>
</g>
<g id="clust12" class="cluster">
<title>cluster_6</title>
<polygon fill="none" stroke="#000000" points="224.089,-2706 224.089,-2780 959.1932,-2780 959.1932,-2706 224.089,-2706"/>
<text text-anchor="middle" x="591.6411" y="-2764.8" font-family="Times,serif" font-size="14.00" fill="#000000">Investigation</text>
</g>
<g id="clust13" class="cluster">
<title>cluster_7</title>
<polygon fill="none" stroke="#000000" points="258.1544,-1986 258.1544,-2114 451.6851,-2114 451.6851,-1986 258.1544,-1986"/>
<text text-anchor="middle" x="354.9197" y="-2098.8" font-family="Times,serif" font-size="14.00" fill="#000000">Agile</text>
</g>
<g id="clust14" class="cluster">
<title>cluster_8</title>
<polygon fill="none" stroke="#000000" points="192.9252,-2788 192.9252,-2970 916.1979,-2970 916.1979,-2788 192.9252,-2788"/>
<text text-anchor="middle" x="554.5616" y="-2954.8" font-family="Times,serif" font-size="14.00" fill="#000000">Software Design &amp; Development practice</text>
</g>
<g id="clust15" class="cluster">
<title>cluster_9</title>
<polygon fill="none" stroke="#000000" points="268.0429,-2978 268.0429,-3106 441.7966,-3106 441.7966,-2978 268.0429,-2978"/>
<text text-anchor="middle" x="354.9197" y="-3090.8" font-family="Times,serif" font-size="14.00" fill="#000000">Security</text>
</g>
<g id="clust16" class="cluster">
<title>cluster_10</title>
<polygon fill="none" stroke="#000000" points="269.7701,-1334 269.7701,-1462 1307.4097,-1462 1307.4097,-1334 269.7701,-1334"/>
<text text-anchor="middle" x="788.5899" y="-1446.8" font-family="Times,serif" font-size="14.00" fill="#000000">Supervision</text>
</g>
<g id="clust17" class="cluster">
<title>cluster_11</title>
<polygon fill="none" stroke="#000000" points="267.8011,-2122 267.8011,-2250 949.9482,-2250 949.9482,-2122 267.8011,-2122"/>
<text text-anchor="middle" x="608.8746" y="-2234.8" font-family="Times,serif" font-size="14.00" fill="#000000">Testing</text>
</g>
<!-- description_37 -->
<g id="node1" class="node">
<title>description_37</title>
<text text-anchor="middle" x="354.9197" y="-1217.8" font-family="Times,serif" font-size="14.00" fill="#000000">BigData Architecture Basics: Hadoop, Cassandra, HDFS, HBase</text>
</g>
<!-- description_1 -->
<g id="node2" class="node">
<title>description_1</title>
<text text-anchor="middle" x="354.9197" y="-1163.8" font-family="Times,serif" font-size="14.00" fill="#000000">Cloud Native Applications Patterns: 12 factors apps</text>
</g>
<!-- description_31 -->
<g id="node3" class="node">
<title>description_31</title>
<text text-anchor="middle" x="354.9197" y="-1109.8" font-family="Times,serif" font-size="14.00" fill="#000000">Cloud&#45;Native Application Advanced: Details of a cloud&#45;oriented application stack: Netflix OSS, SpringBoot…</text>
</g>
<!-- description_45 -->
<g id="node4" class="node">
<title>description_45</title>
<text text-anchor="middle" x="354.9197" y="-1055.8" font-family="Times,serif" font-size="14.00" fill="#000000">Continuous Deployment Advanced: ZDD…</text>
</g>
<!-- description_0 -->
<g id="node5" class="node">
<title>description_0</title>
<text text-anchor="middle" x="354.9197" y="-1001.8" font-family="Times,serif" font-size="14.00" fill="#000000">Continuous Deployment Basics: ZDD, blue green etc.</text>
</g>
<!-- description_20 -->
<g id="node6" class="node">
<title>description_20</title>
<text text-anchor="middle" x="354.9197" y="-947.8" font-family="Times,serif" font-size="14.00" fill="#000000">Data Integration Principles: Main integration patterns : messages, files, APIs …</text>
</g>
<!-- description_24 -->
<g id="node7" class="node">
<title>description_24</title>
<text text-anchor="middle" x="354.9197" y="-893.8" font-family="Times,serif" font-size="14.00" fill="#000000">Event&#45;Driven Architecture Basics: DDD, CQRS…</text>
</g>
<!-- description_27 -->
<g id="node8" class="node">
<title>description_27</title>
<text text-anchor="middle" x="354.9197" y="-839.8" font-family="Times,serif" font-size="14.00" fill="#000000">Fast Data Streaming Basics: Kafka</text>
</g>
<!-- description_18 -->
<g id="node9" class="node">
<title>description_18</title>
<text text-anchor="middle" x="354.9197" y="-785.8" font-family="Times,serif" font-size="14.00" fill="#000000">IS Security theory: Access management, PKI, Identity propagation…</text>
</g>
<!-- description_2 -->
<g id="node10" class="node">
<title>description_2</title>
<text text-anchor="middle" x="354.9197" y="-731.8" font-family="Times,serif" font-size="14.00" fill="#000000">Infra as code basics: Theory + having used one infra as code tool</text>
</g>
<!-- description_17 -->
<g id="node11" class="node">
<title>description_17</title>
<text text-anchor="middle" x="354.9197" y="-677.8" font-family="Times,serif" font-size="14.00" fill="#000000">Integration testing: Tooling, processes, organisation</text>
</g>
<!-- description_21 -->
<g id="node12" class="node">
<title>description_21</title>
<text text-anchor="middle" x="354.9197" y="-623.8" font-family="Times,serif" font-size="14.00" fill="#000000">Log Management: Theory and standard tooling : Elasticsearch, Logstash, Kibana</text>
</g>
<!-- description_12 -->
<g id="node13" class="node">
<title>description_12</title>
<text text-anchor="middle" x="354.9197" y="-569.8" font-family="Times,serif" font-size="14.00" fill="#000000">Message Oriented Middleware: Theory + having used one MOM (Kafka, RabbitMQ …)</text>
</g>
<!-- description_44 -->
<g id="node14" class="node">
<title>description_44</title>
<text text-anchor="middle" x="354.9197" y="-515.8" font-family="Times,serif" font-size="14.00" fill="#000000">Multiple Information Systems Management: Legacy + Cloud / Multiclouds</text>
</g>
<!-- description_23 -->
<g id="node15" class="node">
<title>description_23</title>
<text text-anchor="middle" x="354.9197" y="-461.8" font-family="Times,serif" font-size="14.00" fill="#000000">Network Basics: DNS, DHCP</text>
</g>
<!-- description_8 -->
<g id="node16" class="node">
<title>description_8</title>
<text text-anchor="middle" x="354.9197" y="-407.8" font-family="Times,serif" font-size="14.00" fill="#000000">NoSQL Basics: Theory, using one document&#45;oriented database</text>
</g>
<!-- description_32 -->
<g id="node17" class="node">
<title>description_32</title>
<text text-anchor="middle" x="354.9197" y="-353.8" font-family="Times,serif" font-size="14.00" fill="#000000">Other Cloud Platforms: Using another cloud platform</text>
</g>
<!-- description_7 -->
<g id="node18" class="node">
<title>description_7</title>
<text text-anchor="middle" x="354.9197" y="-299.8" font-family="Times,serif" font-size="14.00" fill="#000000">Relational Database Basics: SQL, indexes…</text>
</g>
<!-- description_4 -->
<g id="node19" class="node">
<title>description_4</title>
<text text-anchor="middle" x="354.9197" y="-245.8" font-family="Times,serif" font-size="14.00" fill="#000000">Resiliency Basics: Design for failure, chaos monkey…</text>
</g>
<!-- description_14 -->
<g id="node20" class="node">
<title>description_14</title>
<text text-anchor="middle" x="354.9197" y="-191.8" font-family="Times,serif" font-size="14.00" fill="#000000">Security Basics: Principles, vocabulary…</text>
</g>
<!-- description_9 -->
<g id="node21" class="node">
<title>description_9</title>
<text text-anchor="middle" x="354.9197" y="-137.8" font-family="Times,serif" font-size="14.00" fill="#000000">Service Architecture Basics: SOA, microservices, REST, API Design …</text>
</g>
<!-- description_22 -->
<g id="node22" class="node">
<title>description_22</title>
<text text-anchor="middle" x="354.9197" y="-83.8" font-family="Times,serif" font-size="14.00" fill="#000000">System basics: ssh, admin system linux, package management, file system, process, services</text>
</g>
<!-- description_25 -->
<g id="node23" class="node">
<title>description_25</title>
<text text-anchor="middle" x="354.9197" y="-29.8" font-family="Times,serif" font-size="14.00" fill="#000000">Web Architecture Basics: SSL, TLS, LoadBalancer, Cache, WAF / WAM, Reverse proxy</text>
</g>
<!-- level_1 -->
<g id="node24" class="node">
<title>level_1</title>
<text text-anchor="middle" x="354.9197" y="-1301.8" font-family="Times,serif" font-size="14.00" fill="#000000">Beginner</text>
</g>
<!-- level_2 -->
<g id="node25" class="node">
<title>level_2</title>
<text text-anchor="middle" x="856.5855" y="-1301.8" font-family="Times,serif" font-size="14.00" fill="#000000">Experienced</text>
</g>
<!-- level_1&#45;&gt;level_2 -->
<g id="edge1" class="edge">
<title>level_1&#45;&gt;level_2</title>
<path fill="none" stroke="#000000" d="M388.6144,-1306C473.9963,-1306 699.4045,-1306 803.0567,-1306"/>
<polygon fill="#000000" stroke="#000000" points="803.2946,-1309.5001 813.2946,-1306 803.2946,-1302.5001 803.2946,-1309.5001"/>
</g>
<!-- level_3 -->
<g id="node26" class="node">
<title>level_3</title>
<text text-anchor="middle" x="1209.4742" y="-1301.8" font-family="Times,serif" font-size="14.00" fill="#000000">Advanced</text>
</g>
<!-- level_2&#45;&gt;level_3 -->
<g id="edge2" class="edge">
<title>level_2&#45;&gt;level_3</title>
<path fill="none" stroke="#000000" d="M899.8566,-1306C966.6417,-1306 1094.2833,-1306 1162.9728,-1306"/>
<polygon fill="#000000" stroke="#000000" points="1163.069,-1309.5001 1173.0689,-1306 1163.0689,-1302.5001 1163.069,-1309.5001"/>
</g>
<!-- skill_0 -->
<g id="skill_0" class="node">
<title>skill_0</title>
<ellipse fill="none" stroke="#000000" cx="354.9197" cy="-2474" rx="126.5801" ry="18"/>
<text text-anchor="middle" x="354.9197" y="-2469.8" font-family="Times,serif" font-size="14.00" fill="#000000">Continuous Deployment Basics*</text>
</g>
<!-- skill_31 -->
<g id="skill_31" class="node">
<title>skill_31</title>
<ellipse fill="none" stroke="#000000" cx="856.5855" cy="-2392" rx="143.9438" ry="18"/>
<text text-anchor="middle" x="856.5855" y="-2387.8" font-family="Times,serif" font-size="14.00" fill="#000000">Cloud&#45;Native Application Advanced*</text>
</g>
<!-- skill_0&#45;&gt;skill_31 -->
<g id="edge13" class="edge">
<title>skill_0&#45;&gt;skill_31</title>
<path fill="none" stroke="#000000" d="M475.81,-2468.5616C537.6552,-2464.3487 613.8919,-2456.9434 681.2064,-2444 721.0869,-2436.3316 764.8858,-2423.3493 798.7375,-2412.2752"/>
<polygon fill="#000000" stroke="#000000" points="800.064,-2415.5229 808.4581,-2409.0584 797.8648,-2408.8773 800.064,-2415.5229"/>
</g>
<!-- skill_45 -->
<g id="skill_45" class="node">
<title>skill_45</title>
<ellipse fill="none" stroke="#000000" cx="1209.4742" cy="-2474" rx="138.633" ry="18"/>
<text text-anchor="middle" x="1209.4742" y="-2469.8" font-family="Times,serif" font-size="14.00" fill="#000000">Continuous Deployment Advanced*</text>
</g>
<!-- skill_0&#45;&gt;skill_45 -->
<g id="edge35" class="edge">
<title>skill_0&#45;&gt;skill_45</title>
<path fill="none" stroke="#000000" d="M481.472,-2474C635.859,-2474 896.4928,-2474 1060.4333,-2474"/>
<polygon fill="#000000" stroke="#000000" points="1060.6016,-2477.5001 1070.6016,-2474 1060.6016,-2470.5001 1060.6016,-2477.5001"/>
</g>
<!-- skill_1 -->
<g id="skill_1" class="node">
<title>skill_1</title>
<ellipse fill="none" stroke="#000000" cx="354.9197" cy="-2392" rx="139.6096" ry="18"/>
<text text-anchor="middle" x="354.9197" y="-2387.8" font-family="Times,serif" font-size="14.00" fill="#000000">Cloud Native Applications Patterns*</text>
</g>
<!-- skill_1&#45;&gt;skill_31 -->
<g id="edge12" class="edge">
<title>skill_1&#45;&gt;skill_31</title>
<path fill="none" stroke="#000000" d="M494.6616,-2392C559.3282,-2392 636.3395,-2392 702.667,-2392"/>
<polygon fill="#000000" stroke="#000000" points="702.7942,-2395.5001 712.7941,-2392 702.7941,-2388.5001 702.7942,-2395.5001"/>
</g>
<!-- skill_2 -->
<g id="skill_2" class="node">
<title>skill_2</title>
<ellipse fill="none" stroke="#000000" cx="354.9197" cy="-2630" rx="84.0308" ry="18"/>
<text text-anchor="middle" x="354.9197" y="-2625.8" font-family="Times,serif" font-size="14.00" fill="#000000">Infra as code basics*</text>
</g>
<!-- skill_41 -->
<g id="skill_41" class="node">
<title>skill_41</title>
<ellipse fill="none" stroke="#000000" cx="1209.4742" cy="-2640" rx="91.2384" ry="18"/>
<text text-anchor="middle" x="1209.4742" y="-2635.8" font-family="Times,serif" font-size="14.00" fill="#000000">Infra as code advanced</text>
</g>
<!-- skill_2&#45;&gt;skill_41 -->
<g id="edge26" class="edge">
<title>skill_2&#45;&gt;skill_41</title>
<path fill="none" stroke="#000000" d="M431.5363,-2637.5301C503.2287,-2644.1744 613.3533,-2653.3528 709.2064,-2657 840.1154,-2661.981 873.0725,-2662.4046 1003.9647,-2657 1041.2418,-2655.4608 1082.2253,-2652.3576 1117.7203,-2649.2188"/>
<polygon fill="#000000" stroke="#000000" points="1118.4157,-2652.6706 1128.0624,-2648.2898 1117.7893,-2645.6986 1118.4157,-2652.6706"/>
</g>
<!-- skill_46 -->
<g id="skill_46" class="node">
<title>skill_46</title>
<ellipse fill="none" stroke="#000000" cx="1209.4742" cy="-2576" rx="131.3729" ry="18"/>
<text text-anchor="middle" x="1209.4742" y="-2571.8" font-family="Times,serif" font-size="14.00" fill="#000000">Software Defined Network (SDN)</text>
</g>
<!-- skill_2&#45;&gt;skill_46 -->
<g id="edge39" class="edge">
<title>skill_2&#45;&gt;skill_46</title>
<path fill="none" stroke="#000000" d="M433.3352,-2623.5233C505.1032,-2617.7147 614.2559,-2609.1796 709.2064,-2603 833.1878,-2594.931 974.5668,-2587.4604 1075.3268,-2582.4326"/>
<polygon fill="#000000" stroke="#000000" points="1075.7484,-2585.9161 1085.5621,-2581.9233 1075.4005,-2578.9247 1075.7484,-2585.9161"/>
</g>
<!-- skill_3 -->
<g id="skill_3" class="node">
<title>skill_3</title>
<ellipse fill="none" stroke="#000000" cx="354.9197" cy="-2576" rx="64.2795" ry="18"/>
<text text-anchor="middle" x="354.9197" y="-2571.8" font-family="Times,serif" font-size="14.00" fill="#000000">DevOps Basics</text>
</g>
<!-- skill_3&#45;&gt;skill_2 -->
<g id="edge3" class="edge">
<title>skill_3&#45;&gt;skill_2</title>
<path fill="none" stroke="#000000" d="M354.9197,-2594.1406C354.9197,-2596.6226 354.9197,-2599.1046 354.9197,-2601.5865"/>
<polygon fill="#000000" stroke="#000000" points="351.4198,-2601.7901 354.9197,-2611.7902 358.4198,-2601.7902 351.4198,-2601.7901"/>
</g>
<!-- skill_4 -->
<g id="skill_4" class="node">
<title>skill_4</title>
<ellipse fill="none" stroke="#000000" cx="354.9197" cy="-1604" rx="77.3168" ry="18"/>
<text text-anchor="middle" x="354.9197" y="-1599.8" font-family="Times,serif" font-size="14.00" fill="#000000">Resiliency Basics*</text>
</g>
<!-- skill_30 -->
<g id="skill_30" class="node">
<title>skill_30</title>
<ellipse fill="none" stroke="#000000" cx="856.5855" cy="-1501" rx="125.5765" ry="18"/>
<text text-anchor="middle" x="856.5855" y="-1496.8" font-family="Times,serif" font-size="14.00" fill="#000000">Distributed Orchestration Basics</text>
</g>
<!-- skill_4&#45;&gt;skill_30 -->
<g id="edge11" class="edge">
<title>skill_4&#45;&gt;skill_30</title>
<path fill="none" stroke="#000000" d="M412.9573,-1592.084C502.0666,-1573.7884 672.9203,-1538.7094 774.6212,-1517.8286"/>
<polygon fill="#000000" stroke="#000000" points="775.4537,-1521.2308 784.5454,-1515.791 774.0458,-1514.3738 775.4537,-1521.2308"/>
</g>
<!-- skill_42 -->
<g id="skill_42" class="node">
<title>skill_42</title>
<ellipse fill="none" stroke="#000000" cx="1209.4742" cy="-1604" rx="85.493" ry="18"/>
<text text-anchor="middle" x="1209.4742" y="-1599.8" font-family="Times,serif" font-size="14.00" fill="#000000">Advanced Resiliency</text>
</g>
<!-- skill_4&#45;&gt;skill_42 -->
<g id="edge28" class="edge">
<title>skill_4&#45;&gt;skill_42</title>
<path fill="none" stroke="#000000" d="M432.2629,-1604C588.7842,-1604 942.6812,-1604 1113.5703,-1604"/>
<polygon fill="#000000" stroke="#000000" points="1113.811,-1607.5001 1123.811,-1604 1113.8109,-1600.5001 1113.811,-1607.5001"/>
</g>
<!-- skill_44 -->
<g id="skill_44" class="node">
<title>skill_44</title>
<ellipse fill="none" stroke="#000000" cx="1209.4742" cy="-2284" rx="169.5189" ry="18"/>
<text text-anchor="middle" x="1209.4742" y="-2279.8" font-family="Times,serif" font-size="14.00" fill="#000000">Multiple Information Systems Management*</text>
</g>
<!-- skill_4&#45;&gt;skill_44 -->
<g id="edge34" class="edge">
<title>skill_4&#45;&gt;skill_44</title>
<path fill="none" stroke="#000000" d="M432.0411,-1604.7744C595.1907,-1607.1743 963.6813,-1616.9088 1003.9647,-1656 1056.2702,-1706.7576 1017.6802,-1912.6055 1039.9647,-1982 1075.3288,-2092.1242 1153.2622,-2207.2751 1189.8183,-2257.7136"/>
<polygon fill="#000000" stroke="#000000" points="1187.0048,-2259.7956 1195.731,-2265.8041 1192.6564,-2255.6652 1187.0048,-2259.7956"/>
</g>
<!-- skill_5 -->
<g id="skill_5" class="node">
<title>skill_5</title>
<ellipse fill="none" stroke="#000000" cx="354.9197" cy="-2284" rx="57.0546" ry="18"/>
<text text-anchor="middle" x="354.9197" y="-2279.8" font-family="Times,serif" font-size="14.00" fill="#000000">Cloud Basics</text>
</g>
<!-- skill_6 -->
<g id="skill_6" class="node">
<title>skill_6</title>
<ellipse fill="none" stroke="#000000" cx="354.9197" cy="-2338" rx="112.0465" ry="18"/>
<text text-anchor="middle" x="354.9197" y="-2333.8" font-family="Times,serif" font-size="14.00" fill="#000000">Basics of one cloud platform</text>
</g>
<!-- skill_5&#45;&gt;skill_6 -->
<g id="edge4" class="edge">
<title>skill_5&#45;&gt;skill_6</title>
<path fill="none" stroke="#000000" d="M354.9197,-2302.1406C354.9197,-2304.6226 354.9197,-2307.1046 354.9197,-2309.5865"/>
<polygon fill="#000000" stroke="#000000" points="351.4198,-2309.7901 354.9197,-2319.7902 358.4198,-2309.7902 351.4198,-2309.7901"/>
</g>
<!-- skill_32 -->
<g id="skill_32" class="node">
<title>skill_32</title>
<ellipse fill="none" stroke="#000000" cx="856.5855" cy="-2284" rx="95.1914" ry="18"/>
<text text-anchor="middle" x="856.5855" y="-2279.8" font-family="Times,serif" font-size="14.00" fill="#000000">Other Cloud Platforms*</text>
</g>
<!-- skill_6&#45;&gt;skill_32 -->
<g id="edge14" class="edge">
<title>skill_6&#45;&gt;skill_32</title>
<path fill="none" stroke="#000000" d="M459.0712,-2331.2528C523.2334,-2326.6321 607.1189,-2319.7574 681.2064,-2311 712.1285,-2307.3449 745.972,-2302.3672 775.6097,-2297.681"/>
<polygon fill="#000000" stroke="#000000" points="776.1654,-2301.1367 785.4893,-2296.1053 775.0628,-2294.2241 776.1654,-2301.1367"/>
</g>
<!-- skill_33 -->
<g id="skill_33" class="node">
<title>skill_33</title>
<ellipse fill="none" stroke="#000000" cx="856.5855" cy="-2338" rx="147.2585" ry="18"/>
<text text-anchor="middle" x="856.5855" y="-2333.8" font-family="Times,serif" font-size="14.00" fill="#000000">Advanced usage of one cloud platform</text>
</g>
<!-- skill_6&#45;&gt;skill_33 -->
<g id="edge15" class="edge">
<title>skill_6&#45;&gt;skill_33</title>
<path fill="none" stroke="#000000" d="M467.5033,-2338C535.7913,-2338 623.96,-2338 699.0956,-2338"/>
<polygon fill="#000000" stroke="#000000" points="699.1341,-2341.5001 709.1341,-2338 699.134,-2334.5001 699.1341,-2341.5001"/>
</g>
<!-- skill_7 -->
<g id="skill_7" class="node">
<title>skill_7</title>
<ellipse fill="none" stroke="#000000" cx="354.9197" cy="-1930" rx="110.5842" ry="18"/>
<text text-anchor="middle" x="354.9197" y="-1925.8" font-family="Times,serif" font-size="14.00" fill="#000000">Relational Database Basics*</text>
</g>
<!-- skill_8 -->
<g id="skill_8" class="node">
<title>skill_8</title>
<ellipse fill="none" stroke="#000000" cx="354.9197" cy="-1876" rx="67.0387" ry="18"/>
<text text-anchor="middle" x="354.9197" y="-1871.8" font-family="Times,serif" font-size="14.00" fill="#000000">NoSQL Basics*</text>
</g>
<!-- skill_9 -->
<g id="skill_9" class="node">
<title>skill_9</title>
<ellipse fill="none" stroke="#000000" cx="354.9197" cy="-1794" rx="112.0293" ry="18"/>
<text text-anchor="middle" x="354.9197" y="-1789.8" font-family="Times,serif" font-size="14.00" fill="#000000">Service Architecture Basics*</text>
</g>
<!-- skill_10 -->
<g id="skill_10" class="node">
<title>skill_10</title>
<ellipse fill="none" stroke="#000000" cx="354.9197" cy="-2732" rx="122.6618" ry="18"/>
<text text-anchor="middle" x="354.9197" y="-2727.8" font-family="Times,serif" font-size="14.00" fill="#000000">Malfunction root cause analysis</text>
</g>
<!-- skill_11 -->
<g id="skill_11" class="node">
<title>skill_11</title>
<ellipse fill="none" stroke="#000000" cx="354.9197" cy="-2012" rx="66.6764" ry="18"/>
<text text-anchor="middle" x="354.9197" y="-2007.8" font-family="Times,serif" font-size="14.00" fill="#000000">Agile principles</text>
</g>
<!-- skill_28 -->
<g id="skill_28" class="node">
<title>skill_28</title>
<ellipse fill="none" stroke="#000000" cx="354.9197" cy="-2066" rx="88.5312" ry="18"/>
<text text-anchor="middle" x="354.9197" y="-2061.8" font-family="Times,serif" font-size="14.00" fill="#000000">Emerging architecture</text>
</g>
<!-- skill_11&#45;&gt;skill_28 -->
<g id="edge8" class="edge">
<title>skill_11&#45;&gt;skill_28</title>
<path fill="none" stroke="#000000" d="M354.9197,-2030.1406C354.9197,-2032.6226 354.9197,-2035.1046 354.9197,-2037.5865"/>
<polygon fill="#000000" stroke="#000000" points="351.4198,-2037.7901 354.9197,-2047.7902 358.4198,-2037.7902 351.4198,-2037.7901"/>
</g>
<!-- skill_12 -->
<g id="skill_12" class="node">
<title>skill_12</title>
<ellipse fill="none" stroke="#000000" cx="354.9197" cy="-1740" rx="123.6211" ry="18"/>
<text text-anchor="middle" x="354.9197" y="-1735.8" font-family="Times,serif" font-size="14.00" fill="#000000">Message Oriented Middleware*</text>
</g>
<!-- skill_13 -->
<g id="skill_13" class="node">
<title>skill_13</title>
<ellipse fill="none" stroke="#000000" cx="354.9197" cy="-2922" rx="128.3455" ry="18"/>
<text text-anchor="middle" x="354.9197" y="-2917.8" font-family="Times,serif" font-size="14.00" fill="#000000">Code &amp; Programming Awareness</text>
</g>
<!-- skill_26 -->
<g id="skill_26" class="node">
<title>skill_26</title>
<ellipse fill="none" stroke="#000000" cx="856.5855" cy="-2922" rx="51.725" ry="18"/>
<text text-anchor="middle" x="856.5855" y="-2917.8" font-family="Times,serif" font-size="14.00" fill="#000000">Clean Code</text>
</g>
<!-- skill_13&#45;&gt;skill_26 -->
<g id="edge7" class="edge">
<title>skill_13&#45;&gt;skill_26</title>
<path fill="none" stroke="#000000" d="M483.4597,-2922C583.3402,-2922 717.4723,-2922 794.7219,-2922"/>
<polygon fill="#000000" stroke="#000000" points="794.7748,-2925.5001 804.7747,-2922 794.7747,-2918.5001 794.7748,-2925.5001"/>
</g>
<!-- skill_14 -->
<g id="skill_14" class="node">
<title>skill_14</title>
<ellipse fill="none" stroke="#000000" cx="354.9197" cy="-3058" rx="69.0992" ry="18"/>
<text text-anchor="middle" x="354.9197" y="-3053.8" font-family="Times,serif" font-size="14.00" fill="#000000">Security Basics*</text>
</g>
<!-- skill_15 -->
<g id="skill_15" class="node">
<title>skill_15</title>
<ellipse fill="none" stroke="#000000" cx="354.9197" cy="-2868" rx="153.989" ry="18"/>
<text text-anchor="middle" x="354.9197" y="-2863.8" font-family="Times,serif" font-size="14.00" fill="#000000">Unit testing &amp; Test Driven Development</text>
</g>
<!-- skill_16 -->
<g id="skill_16" class="node">
<title>skill_16</title>
<ellipse fill="none" stroke="#000000" cx="354.9197" cy="-1414" rx="59.4686" ry="18"/>
<text text-anchor="middle" x="354.9197" y="-1409.8" font-family="Times,serif" font-size="14.00" fill="#000000">IS monitoring</text>
</g>
<!-- skill_43 -->
<g id="skill_43" class="node">
<title>skill_43</title>
<ellipse fill="none" stroke="#000000" cx="1209.4742" cy="-1414" rx="89.8711" ry="18"/>
<text text-anchor="middle" x="1209.4742" y="-1409.8" font-family="Times,serif" font-size="14.00" fill="#000000">Supervision Advanced</text>
</g>
<!-- skill_16&#45;&gt;skill_43 -->
<g id="edge30" class="edge">
<title>skill_16&#45;&gt;skill_43</title>
<path fill="none" stroke="#000000" d="M414.6707,-1414C559.3739,-1414 929.8713,-1414 1109.2173,-1414"/>
<polygon fill="#000000" stroke="#000000" points="1109.4429,-1417.5001 1119.4428,-1414 1109.4428,-1410.5001 1109.4429,-1417.5001"/>
</g>
<!-- skill_17 -->
<g id="skill_17" class="node">
<title>skill_17</title>
<ellipse fill="none" stroke="#000000" cx="354.9197" cy="-2175" rx="79.2375" ry="18"/>
<text text-anchor="middle" x="354.9197" y="-2170.8" font-family="Times,serif" font-size="14.00" fill="#000000">Integration testing*</text>
</g>
<!-- skill_34 -->
<g id="skill_34" class="node">
<title>skill_34</title>
<ellipse fill="none" stroke="#000000" cx="856.5855" cy="-2202" rx="81.1496" ry="18"/>
<text text-anchor="middle" x="856.5855" y="-2197.8" font-family="Times,serif" font-size="14.00" fill="#000000">Performance testing</text>
</g>
<!-- skill_17&#45;&gt;skill_34 -->
<g id="edge17" class="edge">
<title>skill_17&#45;&gt;skill_34</title>
<path fill="none" stroke="#000000" d="M431.9317,-2179.1448C522.2985,-2184.0084 671.8806,-2192.0591 767.2587,-2197.1924"/>
<polygon fill="#000000" stroke="#000000" points="767.2895,-2200.699 777.4632,-2197.7416 767.6658,-2193.7091 767.2895,-2200.699"/>
</g>
<!-- skill_35 -->
<g id="skill_35" class="node">
<title>skill_35</title>
<ellipse fill="none" stroke="#000000" cx="856.5855" cy="-2148" rx="85.2255" ry="18"/>
<text text-anchor="middle" x="856.5855" y="-2143.8" font-family="Times,serif" font-size="14.00" fill="#000000">Testable Architecture</text>
</g>
<!-- skill_17&#45;&gt;skill_35 -->
<g id="edge18" class="edge">
<title>skill_17&#45;&gt;skill_35</title>
<path fill="none" stroke="#000000" d="M431.9317,-2170.8552C521.106,-2166.0557 667.943,-2158.1529 763.4547,-2153.0124"/>
<polygon fill="#000000" stroke="#000000" points="763.8881,-2156.4942 773.6855,-2152.4617 763.5118,-2149.5043 763.8881,-2156.4942"/>
</g>
<!-- skill_18 -->
<g id="skill_18" class="node">
<title>skill_18</title>
<ellipse fill="none" stroke="#000000" cx="354.9197" cy="-3004" rx="78.7539" ry="18"/>
<text text-anchor="middle" x="354.9197" y="-2999.8" font-family="Times,serif" font-size="14.00" fill="#000000">IS Security theory*</text>
</g>
<!-- skill_19 -->
<g id="skill_19" class="node">
<title>skill_19</title>
<ellipse fill="none" stroke="#000000" cx="354.9197" cy="-2814" rx="129.1928" ry="18"/>
<text text-anchor="middle" x="354.9197" y="-2809.8" font-family="Times,serif" font-size="14.00" fill="#000000">Software Development Workflow</text>
</g>
<!-- skill_20 -->
<g id="skill_20" class="node">
<title>skill_20</title>
<ellipse fill="none" stroke="#000000" cx="354.9197" cy="-1686" rx="109.6238" ry="18"/>
<text text-anchor="middle" x="354.9197" y="-1681.8" font-family="Times,serif" font-size="14.00" fill="#000000">Data Integration Principles*</text>
</g>
<!-- skill_20&#45;&gt;skill_9 -->
<g id="edge5" class="edge">
<title>skill_20&#45;&gt;skill_9</title>
<path fill="none" stroke="#000000" d="M251.405,-1679.9825C159.3072,-1677.4211 35.4354,-1681.869 10.6331,-1722 -44.7149,-1811.555 130.6316,-1813.1428 251.0523,-1804.6302"/>
<polygon fill="#000000" stroke="#000000" points="251.3567,-1808.1173 261.0716,-1803.89 250.8409,-1801.1364 251.3567,-1808.1173"/>
</g>
<!-- skill_20&#45;&gt;skill_12 -->
<g id="edge6" class="edge">
<title>skill_20&#45;&gt;skill_12</title>
<path fill="none" stroke="#000000" d="M354.9197,-1704.1406C354.9197,-1706.6226 354.9197,-1709.1046 354.9197,-1711.5865"/>
<polygon fill="#000000" stroke="#000000" points="351.4198,-1711.7901 354.9197,-1721.7902 358.4198,-1711.7902 351.4198,-1711.7901"/>
</g>
<!-- skill_29 -->
<g id="skill_29" class="node">
<title>skill_29</title>
<ellipse fill="none" stroke="#000000" cx="856.5855" cy="-1876" rx="102.3642" ry="18"/>
<text text-anchor="middle" x="856.5855" y="-1871.8" font-family="Times,serif" font-size="14.00" fill="#000000">Data Governance Patterns</text>
</g>
<!-- skill_20&#45;&gt;skill_29 -->
<g id="edge10" class="edge">
<title>skill_20&#45;&gt;skill_29</title>
<path fill="none" stroke="#000000" d="M417.7232,-1671.1574C490.401,-1658.0123 609.28,-1649.5417 681.2064,-1713 726.5037,-1752.9643 666.3498,-1803.4289 709.2064,-1846 719.7425,-1856.466 732.8715,-1863.7623 746.9212,-1868.7808"/>
<polygon fill="#000000" stroke="#000000" points="746.1844,-1872.2187 756.7745,-1871.9022 748.2984,-1865.5456 746.1844,-1872.2187"/>
</g>
<!-- skill_21 -->
<g id="skill_21" class="node">
<title>skill_21</title>
<ellipse fill="none" stroke="#000000" cx="354.9197" cy="-1360" rx="77.2995" ry="18"/>
<text text-anchor="middle" x="354.9197" y="-1355.8" font-family="Times,serif" font-size="14.00" fill="#000000">Log Management*</text>
</g>
<!-- skill_21&#45;&gt;skill_43 -->
<g id="edge31" class="edge">
<title>skill_21&#45;&gt;skill_43</title>
<path fill="none" stroke="#000000" d="M429.6335,-1364.7212C584.7406,-1374.5226 941.5065,-1397.0669 1113.418,-1407.9301"/>
<polygon fill="#000000" stroke="#000000" points="1113.2676,-1411.4275 1123.4685,-1408.5652 1113.7091,-1404.4415 1113.2676,-1411.4275"/>
</g>
<!-- skill_22 -->
<g id="skill_22" class="node">
<title>skill_22</title>
<ellipse fill="none" stroke="#000000" cx="856.5855" cy="-2630" rx="64.2881" ry="18"/>
<text text-anchor="middle" x="856.5855" y="-2625.8" font-family="Times,serif" font-size="14.00" fill="#000000">System basics*</text>
</g>
<!-- skill_22&#45;&gt;skill_41 -->
<g id="edge27" class="edge">
<title>skill_22&#45;&gt;skill_41</title>
<path fill="none" stroke="#000000" d="M920.9004,-2631.8225C973.2382,-2633.3057 1048.0508,-2635.4257 1108.3872,-2637.1354"/>
<polygon fill="#000000" stroke="#000000" points="1108.6111,-2640.6431 1118.7063,-2637.4279 1108.8095,-2633.6459 1108.6111,-2640.6431"/>
</g>
<!-- skill_23 -->
<g id="skill_23" class="node">
<title>skill_23</title>
<ellipse fill="none" stroke="#000000" cx="856.5855" cy="-2556" rx="70.5443" ry="18"/>
<text text-anchor="middle" x="856.5855" y="-2551.8" font-family="Times,serif" font-size="14.00" fill="#000000">Network Basics*</text>
</g>
<!-- skill_23&#45;&gt;skill_46 -->
<g id="edge38" class="edge">
<title>skill_23&#45;&gt;skill_46</title>
<path fill="none" stroke="#000000" d="M925.8839,-2559.9275C969.165,-2562.3805 1026.2889,-2565.618 1077.9197,-2568.5441"/>
<polygon fill="#000000" stroke="#000000" points="1077.9848,-2572.0534 1088.1669,-2569.1249 1078.381,-2565.0646 1077.9848,-2572.0534"/>
</g>
<!-- skill_24 -->
<g id="skill_24" class="node">
<title>skill_24</title>
<ellipse fill="none" stroke="#000000" cx="856.5855" cy="-1794" rx="133.7531" ry="18"/>
<text text-anchor="middle" x="856.5855" y="-1789.8" font-family="Times,serif" font-size="14.00" fill="#000000">Event&#45;Driven Architecture Basics*</text>
</g>
<!-- skill_39 -->
<g id="skill_39" class="node">
<title>skill_39</title>
<ellipse fill="none" stroke="#000000" cx="1209.4742" cy="-1903" rx="74.4103" ry="18"/>
<text text-anchor="middle" x="1209.4742" y="-1898.8" font-family="Times,serif" font-size="14.00" fill="#000000">Fast Data Patterns</text>
</g>
<!-- skill_24&#45;&gt;skill_39 -->
<g id="edge23" class="edge">
<title>skill_24&#45;&gt;skill_39</title>
<path fill="none" stroke="#000000" d="M910.1817,-1810.5548C975.9295,-1830.8629 1086.8558,-1865.1257 1153.619,-1885.7475"/>
<polygon fill="#000000" stroke="#000000" points="1152.952,-1889.2046 1163.5395,-1888.8117 1155.0179,-1882.5163 1152.952,-1889.2046"/>
</g>
<!-- skill_25 -->
<g id="skill_25" class="node">
<title>skill_25</title>
<ellipse fill="none" stroke="#000000" cx="856.5855" cy="-1713" rx="101.9743" ry="18"/>
<text text-anchor="middle" x="856.5855" y="-1708.8" font-family="Times,serif" font-size="14.00" fill="#000000">Web Architecture Basics*</text>
</g>
<!-- skill_27 -->
<g id="skill_27" class="node">
<title>skill_27</title>
<ellipse fill="none" stroke="#000000" cx="856.5855" cy="-1930" rx="112.0711" ry="18"/>
<text text-anchor="middle" x="856.5855" y="-1925.8" font-family="Times,serif" font-size="14.00" fill="#000000">Fast Data Streaming Basics*</text>
</g>
<!-- skill_27&#45;&gt;skill_39 -->
<g id="edge22" class="edge">
<title>skill_27&#45;&gt;skill_39</title>
<path fill="none" stroke="#000000" d="M958.1821,-1922.2267C1012.1861,-1918.0948 1077.6731,-1913.0843 1128.2543,-1909.2142"/>
<polygon fill="#000000" stroke="#000000" points="1128.7838,-1912.6841 1138.4876,-1908.4313 1128.2497,-1905.7045 1128.7838,-1912.6841"/>
</g>
<!-- skill_28&#45;&gt;skill_29 -->
<g id="edge9" class="edge">
<title>skill_28&#45;&gt;skill_29</title>
<path fill="none" stroke="#000000" d="M412.0548,-2079.8338C484.1213,-2093.5909 607.5071,-2104.3147 681.2064,-2039 727.3915,-1998.0692 665.0951,-1946.1577 709.2064,-1903 719.3057,-1893.119 731.754,-1886.2155 745.1,-1881.4708"/>
<polygon fill="#000000" stroke="#000000" points="746.4579,-1884.7133 754.9558,-1878.3858 744.3668,-1878.0329 746.4579,-1884.7133"/>
</g>
<!-- skill_28&#45;&gt;skill_35 -->
<g id="edge19" class="edge">
<title>skill_28&#45;&gt;skill_35</title>
<path fill="none" stroke="#000000" d="M425.2886,-2076.9778C491.3954,-2087.3469 593.0601,-2103.4375 681.2064,-2118 713.6536,-2123.3605 749.4453,-2129.4511 780.1877,-2134.7373"/>
<polygon fill="#000000" stroke="#000000" points="779.9589,-2138.2493 790.4078,-2136.4969 781.1467,-2131.3508 779.9589,-2138.2493"/>
</g>
<!-- skill_37 -->
<g id="skill_37" class="node">
<title>skill_37</title>
<ellipse fill="none" stroke="#000000" cx="1209.4742" cy="-1550" rx="115.4364" ry="18"/>
<text text-anchor="middle" x="1209.4742" y="-1545.8" font-family="Times,serif" font-size="14.00" fill="#000000">BigData Architecture Basics*</text>
</g>
<!-- skill_30&#45;&gt;skill_37 -->
<g id="edge20" class="edge">
<title>skill_30&#45;&gt;skill_37</title>
<path fill="none" stroke="#000000" d="M947.0049,-1513.5551C997.8342,-1520.6129 1061.2739,-1529.4218 1113.0502,-1536.6111"/>
<polygon fill="#000000" stroke="#000000" points="1112.8563,-1540.1177 1123.2427,-1538.0264 1113.8191,-1533.1842 1112.8563,-1540.1177"/>
</g>
<!-- skill_40 -->
<g id="skill_40" class="node">
<title>skill_40</title>
<ellipse fill="none" stroke="#000000" cx="1209.4742" cy="-1496" rx="114.9432" ry="18"/>
<text text-anchor="middle" x="1209.4742" y="-1491.8" font-family="Times,serif" font-size="14.00" fill="#000000">Distributed Data Architecture</text>
</g>
<!-- skill_30&#45;&gt;skill_40 -->
<g id="edge25" class="edge">
<title>skill_30&#45;&gt;skill_40</title>
<path fill="none" stroke="#000000" d="M981.9945,-1499.2231C1015.3878,-1498.75 1051.4494,-1498.239 1084.8031,-1497.7664"/>
<polygon fill="#000000" stroke="#000000" points="1085.1119,-1501.2625 1095.0613,-1497.6211 1085.0127,-1494.2632 1085.1119,-1501.2625"/>
</g>
<!-- skill_30&#45;&gt;skill_43 -->
<g id="edge32" class="edge">
<title>skill_30&#45;&gt;skill_43</title>
<path fill="none" stroke="#000000" d="M922.2973,-1485.6122C947.8159,-1479.5795 977.2739,-1472.5457 1003.9647,-1466 1051.02,-1454.4601 1104.0254,-1441.0377 1144.4179,-1430.7206"/>
<polygon fill="#000000" stroke="#000000" points="1145.3201,-1434.1026 1154.1416,-1428.2347 1143.5863,-1427.3207 1145.3201,-1434.1026"/>
</g>
<!-- skill_32&#45;&gt;skill_44 -->
<g id="edge33" class="edge">
<title>skill_32&#45;&gt;skill_44</title>
<path fill="none" stroke="#000000" d="M952.0823,-2284C976.1549,-2284 1002.794,-2284 1029.54,-2284"/>
<polygon fill="#000000" stroke="#000000" points="1029.7909,-2287.5001 1039.7908,-2284 1029.7908,-2280.5001 1029.7909,-2287.5001"/>
</g>
<!-- skill_34&#45;&gt;skill_45 -->
<g id="edge36" class="edge">
<title>skill_34&#45;&gt;skill_45</title>
<path fill="none" stroke="#000000" d="M926.3667,-2211.2538C954.3059,-2218.4536 984.4348,-2231.252 1003.9647,-2254 1059.9505,-2319.2109 978.825,-2383.5948 1039.9647,-2444 1048.5185,-2452.451 1058.5707,-2458.9867 1069.4389,-2464.0003"/>
<polygon fill="#000000" stroke="#000000" points="1068.1673,-2467.2619 1078.7451,-2467.8623 1070.8504,-2460.7966 1068.1673,-2467.2619"/>
</g>
<!-- skill_35&#45;&gt;skill_45 -->
<g id="edge37" class="edge">
<title>skill_35&#45;&gt;skill_45</title>
<path fill="none" stroke="#000000" d="M941.3688,-2145.895C964.5476,-2149.5908 987.7241,-2157.9579 1003.9647,-2175 1087.1789,-2262.3209 956.4879,-2356.9302 1039.9647,-2444 1048.1231,-2452.5096 1057.7918,-2459.109 1068.3117,-2464.1849"/>
<polygon fill="#000000" stroke="#000000" points="1067.1907,-2467.5132 1077.759,-2468.2632 1069.965,-2461.0864 1067.1907,-2467.5132"/>
</g>
<!-- skill_36 -->
<g id="skill_36" class="node">
<title>skill_36</title>
<ellipse fill="none" stroke="#000000" cx="856.5855" cy="-2732" rx="94.7155" ry="18"/>
<text text-anchor="middle" x="856.5855" y="-2727.8" font-family="Times,serif" font-size="14.00" fill="#000000">Blameless Post Mortem</text>
</g>
<!-- skill_38 -->
<g id="skill_38" class="node">
<title>skill_38</title>
<ellipse fill="none" stroke="#000000" cx="856.5855" cy="-1563" rx="78.7617" ry="18"/>
<text text-anchor="middle" x="856.5855" y="-1558.8" font-family="Times,serif" font-size="14.00" fill="#000000">Scalability Patterns</text>
</g>
<!-- skill_38&#45;&gt;skill_34 -->
<g id="edge16" class="edge">
<title>skill_38&#45;&gt;skill_34</title>
<path fill="none" stroke="#000000" d="M810.6568,-1577.7815C772.0584,-1592.9315 719.427,-1620.6359 695.2064,-1665 681.869,-1689.4297 681.869,-2141.5703 695.2064,-2166 709.6658,-2192.4848 739.4599,-2203.2893 769.5575,-2206.8251"/>
<polygon fill="#000000" stroke="#000000" points="769.4771,-2210.3323 779.7544,-2207.7577 770.1148,-2203.3614 769.4771,-2210.3323"/>
</g>
<!-- skill_38&#45;&gt;skill_37 -->
<g id="edge21" class="edge">
<title>skill_38&#45;&gt;skill_37</title>
<path fill="none" stroke="#000000" d="M934.4653,-1560.131C979.2778,-1558.4802 1036.5794,-1556.3692 1087.2664,-1554.502"/>
<polygon fill="#000000" stroke="#000000" points="1087.4456,-1557.9979 1097.3099,-1554.132 1087.1878,-1551.0026 1087.4456,-1557.9979"/>
</g>
<!-- skill_38&#45;&gt;skill_40 -->
<g id="edge24" class="edge">
<title>skill_38&#45;&gt;skill_40</title>
<path fill="none" stroke="#000000" d="M911.789,-1550.1016C948.1042,-1541.8285 996.7363,-1531.1506 1039.9647,-1523 1064.4155,-1518.3899 1090.9488,-1513.9148 1115.6052,-1509.9771"/>
<polygon fill="#000000" stroke="#000000" points="1116.35,-1513.4028 1125.6792,-1508.3811 1115.2547,-1506.489 1116.35,-1513.4028"/>
</g>
<!-- skill_38&#45;&gt;skill_42 -->
<g id="edge29" class="edge">
<title>skill_38&#45;&gt;skill_42</title>
<path fill="none" stroke="#000000" d="M926.7269,-1571.1493C983.5398,-1577.75 1063.7949,-1587.0744 1124.2958,-1594.1036"/>
<polygon fill="#000000" stroke="#000000" points="1124.2521,-1597.622 1134.5892,-1595.2996 1125.06,-1590.6688 1124.2521,-1597.622"/>
</g>
<!-- level__1 -->
<g id="node74" class="node">
<title>level__1</title>
<text text-anchor="middle" x="354.9197" y="-3127.8" font-family="Times,serif" font-size="14.00" fill="#000000">Beginner</text>
</g>
<!-- level__2 -->
<g id="node75" class="node">
<title>level__2</title>
<text text-anchor="middle" x="856.5855" y="-3127.8" font-family="Times,serif" font-size="14.00" fill="#000000">Experienced</text>
</g>
<!-- level__1&#45;&gt;level__2 -->
<g id="edge40" class="edge">
<title>level__1&#45;&gt;level__2</title>
<path fill="none" stroke="#000000" d="M388.6144,-3132C473.9963,-3132 699.4045,-3132 803.0567,-3132"/>
<polygon fill="#000000" stroke="#000000" points="803.2946,-3135.5001 813.2946,-3132 803.2946,-3128.5001 803.2946,-3135.5001"/>
</g>
<!-- level__3 -->
<g id="node76" class="node">
<title>level__3</title>
<text text-anchor="middle" x="1209.4742" y="-3127.8" font-family="Times,serif" font-size="14.00" fill="#000000">Advanced</text>
</g>
<!-- level__2&#45;&gt;level__3 -->
<g id="edge41" class="edge">
<title>level__2&#45;&gt;level__3</title>
<path fill="none" stroke="#000000" d="M899.8566,-3132C966.6417,-3132 1094.2833,-3132 1162.9728,-3132"/>
<polygon fill="#000000" stroke="#000000" points="1163.069,-3135.5001 1173.0689,-3132 1163.0689,-3128.5001 1163.069,-3135.5001"/>
</g>
</g>
</svg>
