<?xml version="1.0" encoding="UTF-8" standalone="no"?>
<!DOCTYPE svg PUBLIC "-//W3C//DTD SVG 1.1//EN"
 "http://www.w3.org/Graphics/SVG/1.1/DTD/svg11.dtd">
<!-- Generated by graphviz version 2.40.1 (20161225.0304)
 -->
<!-- Title: skills Pages: 1 -->
<svg width="1681pt" height="3256pt"
 viewBox="0.00 0.00 1680.72 3256.00" xmlns="http://www.w3.org/2000/svg" xmlns:xlink="http://www.w3.org/1999/xlink">
<g id="graph0" class="graph" transform="scale(1 1) rotate(0) translate(4 3252)">
<title>skills</title>
<polygon fill="#ffffff" stroke="transparent" points="-4,4 -4,-3252 1676.7231,-3252 1676.7231,4 -4,4"/>
<text text-anchor="middle" x="836.3615" y="-3205.6" font-family="Times,serif" font-size="48.00" fill="#000000">What should an IS architect know?</text>
<g id="clust1" class="cluster">
<title>cluster_skill_details</title>
<polygon fill="none" stroke="#000000" points="8,-8 8,-1270 660.5732,-1270 660.5732,-8 8,-8"/>
<text text-anchor="middle" x="334.2866" y="-1254.8" font-family="Times,serif" font-size="14.00" fill="#000000">Skills Descriptions</text>
</g>
<g id="clust7" class="cluster">
<title>cluster_0</title>
<polygon fill="none" stroke="#000000" points="199.7466,-2490 199.7466,-2564 1333.2004,-2564 1333.2004,-2490 199.7466,-2490"/>
<text text-anchor="middle" x="766.4735" y="-2548.8" font-family="Times,serif" font-size="14.00" fill="#000000">Deployment</text>
</g>
<g id="clust8" class="cluster">
<title>cluster_1</title>
<polygon fill="none" stroke="#000000" points="186.7318,-2408 186.7318,-2482 987.6742,-2482 987.6742,-2408 186.7318,-2408"/>
<text text-anchor="middle" x="587.203" y="-2466.8" font-family="Times,serif" font-size="14.00" fill="#000000">Cloud Native Applications</text>
</g>
<g id="clust9" class="cluster">
<title>cluster_2</title>
<polygon fill="none" stroke="#000000" points="242.2712,-2572 242.2712,-2740 1664.7231,-2740 1664.7231,-2572 242.2712,-2572"/>
<text text-anchor="middle" x="953.4972" y="-2724.8" font-family="Times,serif" font-size="14.00" fill="#000000">Ops</text>
</g>
<g id="clust10" class="cluster">
<title>cluster_3</title>
<polygon fill="none" stroke="#000000" points="249.1284,-1620 249.1284,-1802 1312.059,-1802 1312.059,-1620 249.1284,-1620"/>
<text text-anchor="middle" x="780.5937" y="-1786.8" font-family="Times,serif" font-size="14.00" fill="#000000">Distributed Architecture</text>
</g>
<g id="clust11" class="cluster">
<title>cluster_4</title>
<polygon fill="none" stroke="#000000" points="214.0136,-1324 214.0136,-1452 1366.3505,-1452 1366.3505,-1324 214.0136,-1324"/>
<text text-anchor="middle" x="790.182" y="-1436.8" font-family="Times,serif" font-size="14.00" fill="#000000">Cloud Architecture</text>
</g>
<g id="clust12" class="cluster">
<title>cluster_5</title>
<polygon fill="none" stroke="#000000" points="215.4947,-2000 215.4947,-2128 1293.8841,-2128 1293.8841,-2000 215.4947,-2000"/>
<text text-anchor="middle" x="754.6894" y="-2112.8" font-family="Times,serif" font-size="14.00" fill="#000000">Data Architecture</text>
</g>
<g id="clust13" class="cluster">
<title>cluster_6</title>
<polygon fill="none" stroke="#000000" points="202.7261,-1810 202.7261,-1992 1255.3278,-1992 1255.3278,-1810 202.7261,-1810"/>
<text text-anchor="middle" x="729.027" y="-1976.8" font-family="Times,serif" font-size="14.00" fill="#000000">IS Architecture</text>
</g>
<g id="clust14" class="cluster">
<title>cluster_7</title>
<polygon fill="none" stroke="#000000" points="203.4558,-2748 203.4558,-2822 938.5601,-2822 938.5601,-2748 203.4558,-2748"/>
<text text-anchor="middle" x="571.008" y="-2806.8" font-family="Times,serif" font-size="14.00" fill="#000000">Investigation</text>
</g>
<g id="clust15" class="cluster">
<title>cluster_8</title>
<polygon fill="none" stroke="#000000" points="237.5213,-2136 237.5213,-2264 431.0519,-2264 431.0519,-2136 237.5213,-2136"/>
<text text-anchor="middle" x="334.2866" y="-2248.8" font-family="Times,serif" font-size="14.00" fill="#000000">Agile</text>
</g>
<g id="clust16" class="cluster">
<title>cluster_9</title>
<polygon fill="none" stroke="#000000" points="172.2921,-2830 172.2921,-3012 895.5648,-3012 895.5648,-2830 172.2921,-2830"/>
<text text-anchor="middle" x="533.9285" y="-2996.8" font-family="Times,serif" font-size="14.00" fill="#000000">Software Design &amp; Development practice</text>
</g>
<g id="clust17" class="cluster">
<title>cluster_10</title>
<polygon fill="none" stroke="#000000" points="247.4098,-3020 247.4098,-3148 982.0131,-3148 982.0131,-3020 247.4098,-3020"/>
<text text-anchor="middle" x="614.7115" y="-3132.8" font-family="Times,serif" font-size="14.00" fill="#000000">Security</text>
</g>
<g id="clust18" class="cluster">
<title>cluster_11</title>
<polygon fill="none" stroke="#000000" points="249.137,-1460 249.137,-1588 1286.7765,-1588 1286.7765,-1460 249.137,-1460"/>
<text text-anchor="middle" x="767.9568" y="-1572.8" font-family="Times,serif" font-size="14.00" fill="#000000">Supervision</text>
</g>
<g id="clust19" class="cluster">
<title>cluster_12</title>
<polygon fill="none" stroke="#000000" points="247.1679,-2272 247.1679,-2400 929.3151,-2400 929.3151,-2272 247.1679,-2272"/>
<text text-anchor="middle" x="588.2415" y="-2384.8" font-family="Times,serif" font-size="14.00" fill="#000000">Testing</text>
</g>
<!-- description_39 -->
<g id="node1" class="node">
<title>description_39</title>
<text text-anchor="middle" x="334.2866" y="-1217.8" font-family="Times,serif" font-size="14.00" fill="#000000">BigData Architecture Basics: Hadoop, Cassandra, HDFS, HBase</text>
</g>
<!-- description_1 -->
<g id="node2" class="node">
<title>description_1</title>
<text text-anchor="middle" x="334.2866" y="-1163.8" font-family="Times,serif" font-size="14.00" fill="#000000">Cloud Native Applications Patterns: 12 factors apps</text>
</g>
<!-- description_31 -->
<g id="node3" class="node">
<title>description_31</title>
<text text-anchor="middle" x="334.2866" y="-1109.8" font-family="Times,serif" font-size="14.00" fill="#000000">Cloud&#45;Native Application Advanced: Details of a cloud&#45;oriented application stack: Netflix OSS, SpringBoot…</text>
</g>
<!-- description_48 -->
<g id="node4" class="node">
<title>description_48</title>
<text text-anchor="middle" x="334.2866" y="-1055.8" font-family="Times,serif" font-size="14.00" fill="#000000">Continuous Deploymen Advanced: ZDD…</text>
</g>
<!-- description_0 -->
<g id="node5" class="node">
<title>description_0</title>
<text text-anchor="middle" x="334.2866" y="-1001.8" font-family="Times,serif" font-size="14.00" fill="#000000">Continuous Deployment Basics: ZDD, blue green etc.</text>
</g>
<!-- description_20 -->
<g id="node6" class="node">
<title>description_20</title>
<text text-anchor="middle" x="334.2866" y="-947.8" font-family="Times,serif" font-size="14.00" fill="#000000">Data Integration Principles: Main integration patterns : messages, files, APIs …</text>
</g>
<!-- description_24 -->
<g id="node7" class="node">
<title>description_24</title>
<text text-anchor="middle" x="334.2866" y="-893.8" font-family="Times,serif" font-size="14.00" fill="#000000">Event&#45;Driven Architecture Basics: DDD, CQRS…</text>
</g>
<!-- description_27 -->
<g id="node8" class="node">
<title>description_27</title>
<text text-anchor="middle" x="334.2866" y="-839.8" font-family="Times,serif" font-size="14.00" fill="#000000">Fast Data Streaming Basics: Kafka</text>
</g>
<!-- description_18 -->
<g id="node9" class="node">
<title>description_18</title>
<text text-anchor="middle" x="334.2866" y="-785.8" font-family="Times,serif" font-size="14.00" fill="#000000">IS Security theory: PKI…</text>
</g>
<!-- description_2 -->
<g id="node10" class="node">
<title>description_2</title>
<text text-anchor="middle" x="334.2866" y="-731.8" font-family="Times,serif" font-size="14.00" fill="#000000">Infra as code basics: Theory + having used one infra as code tool</text>
</g>
<!-- description_17 -->
<g id="node11" class="node">
<title>description_17</title>
<text text-anchor="middle" x="334.2866" y="-677.8" font-family="Times,serif" font-size="14.00" fill="#000000">Integration testing: Tooling, processes, organisation</text>
</g>
<!-- description_21 -->
<g id="node12" class="node">
<title>description_21</title>
<text text-anchor="middle" x="334.2866" y="-623.8" font-family="Times,serif" font-size="14.00" fill="#000000">Log Management: Theory and standard tooling : Elasticsearch, Logstash, Kibana</text>
</g>
<!-- description_12 -->
<g id="node13" class="node">
<title>description_12</title>
<text text-anchor="middle" x="334.2866" y="-569.8" font-family="Times,serif" font-size="14.00" fill="#000000">Message Oriented Middleware: Theory + having used one MOM (Kafka, RabbitMQ …)</text>
</g>
<!-- description_47 -->
<g id="node14" class="node">
<title>description_47</title>
<text text-anchor="middle" x="334.2866" y="-515.8" font-family="Times,serif" font-size="14.00" fill="#000000">Multiple Information Systems Management: Legacy + Cloud / Multiclouds</text>
</g>
<!-- description_23 -->
<g id="node15" class="node">
<title>description_23</title>
<text text-anchor="middle" x="334.2866" y="-461.8" font-family="Times,serif" font-size="14.00" fill="#000000">Network Basics: DNS, DHCP</text>
</g>
<!-- description_8 -->
<g id="node16" class="node">
<title>description_8</title>
<text text-anchor="middle" x="334.2866" y="-407.8" font-family="Times,serif" font-size="14.00" fill="#000000">NoSQL Basics: Theory, using one document&#45;oriented database</text>
</g>
<!-- description_32 -->
<g id="node17" class="node">
<title>description_32</title>
<text text-anchor="middle" x="334.2866" y="-353.8" font-family="Times,serif" font-size="14.00" fill="#000000">Other Cloud Platforms: Using another cloud platform</text>
</g>
<!-- description_7 -->
<g id="node18" class="node">
<title>description_7</title>
<text text-anchor="middle" x="334.2866" y="-299.8" font-family="Times,serif" font-size="14.00" fill="#000000">Relational Database Basics: SQL, indexes…</text>
</g>
<!-- description_4 -->
<g id="node19" class="node">
<title>description_4</title>
<text text-anchor="middle" x="334.2866" y="-245.8" font-family="Times,serif" font-size="14.00" fill="#000000">Resiliency Basics: Design for failure, chaos monkey…</text>
</g>
<!-- description_14 -->
<g id="node20" class="node">
<title>description_14</title>
<text text-anchor="middle" x="334.2866" y="-191.8" font-family="Times,serif" font-size="14.00" fill="#000000">Security Basics: Principles, vocabulary…</text>
</g>
<!-- description_9 -->
<g id="node21" class="node">
<title>description_9</title>
<text text-anchor="middle" x="334.2866" y="-137.8" font-family="Times,serif" font-size="14.00" fill="#000000">Service Architecture Basics: SOA, microservices, REST, API Design …</text>
</g>
<!-- description_22 -->
<g id="node22" class="node">
<title>description_22</title>
<text text-anchor="middle" x="334.2866" y="-83.8" font-family="Times,serif" font-size="14.00" fill="#000000">System basics: ssh, admin system linux, package management, file system, process, services</text>
</g>
<!-- description_25 -->
<g id="node23" class="node">
<title>description_25</title>
<text text-anchor="middle" x="334.2866" y="-29.8" font-family="Times,serif" font-size="14.00" fill="#000000">Web Architecture Basics: SSL, TLS, LoadBalancer, Cache, WAF / WAM, Reverse proxy</text>
</g>
<!-- level_1 -->
<g id="node24" class="node">
<title>level_1</title>
<text text-anchor="middle" x="334.2866" y="-1291.8" font-family="Times,serif" font-size="14.00" fill="#000000">Beginner</text>
</g>
<!-- level_2 -->
<g id="node25" class="node">
<title>level_2</title>
<text text-anchor="middle" x="835.9524" y="-1291.8" font-family="Times,serif" font-size="14.00" fill="#000000">Experienced</text>
</g>
<!-- level_1&#45;&gt;level_2 -->
<g id="edge1" class="edge">
<title>level_1&#45;&gt;level_2</title>
<path fill="none" stroke="#000000" d="M367.9813,-1296C453.3631,-1296 678.7714,-1296 782.4236,-1296"/>
<polygon fill="#000000" stroke="#000000" points="782.6615,-1299.5001 792.6615,-1296 782.6614,-1292.5001 782.6615,-1299.5001"/>
</g>
<!-- level_3 -->
<g id="node26" class="node">
<title>level_3</title>
<text text-anchor="middle" x="1188.841" y="-1291.8" font-family="Times,serif" font-size="14.00" fill="#000000">Advanced</text>
</g>
<!-- level_2&#45;&gt;level_3 -->
<g id="edge2" class="edge">
<title>level_2&#45;&gt;level_3</title>
<path fill="none" stroke="#000000" d="M879.2235,-1296C946.0086,-1296 1073.6502,-1296 1142.3396,-1296"/>
<polygon fill="#000000" stroke="#000000" points="1142.4359,-1299.5001 1152.4358,-1296 1142.4358,-1292.5001 1142.4359,-1299.5001"/>
</g>
<!-- level_4 -->
<g id="node27" class="node">
<title>level_4</title>
<text text-anchor="middle" x="1525.5368" y="-1291.8" font-family="Times,serif" font-size="14.00" fill="#000000">Expert</text>
</g>
<!-- level_3&#45;&gt;level_4 -->
<g id="edge3" class="edge">
<title>level_3&#45;&gt;level_4</title>
<path fill="none" stroke="#000000" d="M1225.1933,-1296C1289.6237,-1296 1423.1814,-1296 1488.2639,-1296"/>
<polygon fill="#000000" stroke="#000000" points="1488.473,-1299.5001 1498.473,-1296 1488.4729,-1292.5001 1488.473,-1299.5001"/>
</g>
<!-- skill_0 -->
<g id="skill_0" class="node">
<title>skill_0</title>
<ellipse fill="none" stroke="#000000" cx="334.2866" cy="-2516" rx="126.5801" ry="18"/>
<text text-anchor="middle" x="334.2866" y="-2511.8" font-family="Times,serif" font-size="14.00" fill="#000000">Continuous Deployment Basics*</text>
</g>
<!-- skill_31 -->
<g id="skill_31" class="node">
<title>skill_31</title>
<ellipse fill="none" stroke="#000000" cx="835.9524" cy="-2434" rx="143.9438" ry="18"/>
<text text-anchor="middle" x="835.9524" y="-2429.8" font-family="Times,serif" font-size="14.00" fill="#000000">Cloud&#45;Native Application Advanced*</text>
</g>
<!-- skill_0&#45;&gt;skill_31 -->
<g id="edge14" class="edge">
<title>skill_0&#45;&gt;skill_31</title>
<path fill="none" stroke="#000000" d="M455.1768,-2510.5616C517.0221,-2506.3487 593.2588,-2498.9434 660.5732,-2486 700.4538,-2478.3316 744.2527,-2465.3493 778.1043,-2454.2752"/>
<polygon fill="#000000" stroke="#000000" points="779.4309,-2457.5229 787.825,-2451.0584 777.2317,-2450.8773 779.4309,-2457.5229"/>
</g>
<!-- skill_48 -->
<g id="skill_48" class="node">
<title>skill_48</title>
<ellipse fill="none" stroke="#000000" cx="1188.841" cy="-2516" rx="136.2189" ry="18"/>
<text text-anchor="middle" x="1188.841" y="-2511.8" font-family="Times,serif" font-size="14.00" fill="#000000">Continuous Deploymen Advanced*</text>
</g>
<!-- skill_0&#45;&gt;skill_48 -->
<g id="edge33" class="edge">
<title>skill_0&#45;&gt;skill_48</title>
<path fill="none" stroke="#000000" d="M460.8389,-2516C615.9085,-2516 878.1665,-2516 1041.969,-2516"/>
<polygon fill="#000000" stroke="#000000" points="1042.1264,-2519.5001 1052.1264,-2516 1042.1263,-2512.5001 1042.1264,-2519.5001"/>
</g>
<!-- skill_1 -->
<g id="skill_1" class="node">
<title>skill_1</title>
<ellipse fill="none" stroke="#000000" cx="334.2866" cy="-2434" rx="139.6096" ry="18"/>
<text text-anchor="middle" x="334.2866" y="-2429.8" font-family="Times,serif" font-size="14.00" fill="#000000">Cloud Native Applications Patterns*</text>
</g>
<!-- skill_1&#45;&gt;skill_31 -->
<g id="edge13" class="edge">
<title>skill_1&#45;&gt;skill_31</title>
<path fill="none" stroke="#000000" d="M474.0285,-2434C538.695,-2434 615.7064,-2434 682.0339,-2434"/>
<polygon fill="#000000" stroke="#000000" points="682.1611,-2437.5001 692.161,-2434 682.161,-2430.5001 682.1611,-2437.5001"/>
</g>
<!-- skill_2 -->
<g id="skill_2" class="node">
<title>skill_2</title>
<ellipse fill="none" stroke="#000000" cx="334.2866" cy="-2690" rx="84.0308" ry="18"/>
<text text-anchor="middle" x="334.2866" y="-2685.8" font-family="Times,serif" font-size="14.00" fill="#000000">Infra as code basics*</text>
</g>
<!-- skill_44 -->
<g id="skill_44" class="node">
<title>skill_44</title>
<ellipse fill="none" stroke="#000000" cx="1188.841" cy="-2672" rx="91.2384" ry="18"/>
<text text-anchor="middle" x="1188.841" y="-2667.8" font-family="Times,serif" font-size="14.00" fill="#000000">Infra as code advanced</text>
</g>
<!-- skill_2&#45;&gt;skill_44 -->
<g id="edge25" class="edge">
<title>skill_2&#45;&gt;skill_44</title>
<path fill="none" stroke="#000000" d="M418.3583,-2689.0668C542.7715,-2687.5763 783.2461,-2684.2771 987.6742,-2679 1020.4578,-2678.1537 1056.2386,-2676.9872 1088.4136,-2675.849"/>
<polygon fill="#000000" stroke="#000000" points="1088.8563,-2679.3356 1098.725,-2675.4809 1088.6065,-2672.34 1088.8563,-2679.3356"/>
</g>
<!-- skill_50 -->
<g id="skill_50" class="node">
<title>skill_50</title>
<ellipse fill="none" stroke="#000000" cx="1525.5368" cy="-2663" rx="131.3729" ry="18"/>
<text text-anchor="middle" x="1525.5368" y="-2658.8" font-family="Times,serif" font-size="14.00" fill="#000000">Software Defined Network (SDN)</text>
</g>
<!-- skill_2&#45;&gt;skill_50 -->
<g id="edge38" class="edge">
<title>skill_2&#45;&gt;skill_50</title>
<path fill="none" stroke="#000000" d="M411.968,-2696.9985C584.3681,-2711.1488 1011.7531,-2738.5962 1366.3505,-2699 1396.9557,-2695.5825 1430.2664,-2688.578 1458.4689,-2681.6482"/>
<polygon fill="#000000" stroke="#000000" points="1459.3687,-2685.031 1468.2186,-2679.2062 1457.6679,-2678.2408 1459.3687,-2685.031"/>
</g>
<!-- skill_3 -->
<g id="skill_3" class="node">
<title>skill_3</title>
<ellipse fill="none" stroke="#000000" cx="334.2866" cy="-2636" rx="78.6074" ry="18"/>
<text text-anchor="middle" x="334.2866" y="-2631.8" font-family="Times,serif" font-size="14.00" fill="#000000">DevOps Awareness</text>
</g>
<!-- skill_3&#45;&gt;skill_2 -->
<g id="edge4" class="edge">
<title>skill_3&#45;&gt;skill_2</title>
<path fill="none" stroke="#000000" d="M334.2866,-2654.1406C334.2866,-2656.6226 334.2866,-2659.1046 334.2866,-2661.5865"/>
<polygon fill="#000000" stroke="#000000" points="330.7867,-2661.7901 334.2866,-2671.7902 337.7867,-2661.7902 330.7867,-2661.7901"/>
</g>
<!-- skill_4 -->
<g id="skill_4" class="node">
<title>skill_4</title>
<ellipse fill="none" stroke="#000000" cx="334.2866" cy="-1658" rx="77.3168" ry="18"/>
<text text-anchor="middle" x="334.2866" y="-1653.8" font-family="Times,serif" font-size="14.00" fill="#000000">Resiliency Basics*</text>
</g>
<!-- skill_30 -->
<g id="skill_30" class="node">
<title>skill_30</title>
<ellipse fill="none" stroke="#000000" cx="835.9524" cy="-1652" rx="125.5765" ry="18"/>
<text text-anchor="middle" x="835.9524" y="-1647.8" font-family="Times,serif" font-size="14.00" fill="#000000">Distributed Orchestration Basics</text>
</g>
<!-- skill_4&#45;&gt;skill_30 -->
<g id="edge12" class="edge">
<title>skill_4&#45;&gt;skill_30</title>
<path fill="none" stroke="#000000" d="M411.5725,-1657.0756C488.4758,-1656.1559 608.068,-1654.7255 700.7232,-1653.6174"/>
<polygon fill="#000000" stroke="#000000" points="700.7834,-1657.117 710.7408,-1653.4975 700.6996,-1650.1175 700.7834,-1657.117"/>
</g>
<!-- skill_45 -->
<g id="skill_45" class="node">
<title>skill_45</title>
<ellipse fill="none" stroke="#000000" cx="1188.841" cy="-1700" rx="85.493" ry="18"/>
<text text-anchor="middle" x="1188.841" y="-1695.8" font-family="Times,serif" font-size="14.00" fill="#000000">Advanced Resiliency</text>
</g>
<!-- skill_4&#45;&gt;skill_45 -->
<g id="edge26" class="edge">
<title>skill_4&#45;&gt;skill_45</title>
<path fill="none" stroke="#000000" d="M383.6367,-1671.8638C451.6179,-1690.1732 578.2087,-1721.4463 688.5732,-1733 820.7845,-1746.8407 855.323,-1745.4315 987.6742,-1733 1001.9319,-1731.6608 1005.224,-1729.4599 1019.3316,-1727 1048.7434,-1721.8715 1081.0963,-1716.6219 1109.5836,-1712.1313"/>
<polygon fill="#000000" stroke="#000000" points="1110.1515,-1715.5851 1119.4875,-1710.5761 1109.0656,-1708.6699 1110.1515,-1715.5851"/>
</g>
<!-- skill_47 -->
<g id="skill_47" class="node">
<title>skill_47</title>
<ellipse fill="none" stroke="#000000" cx="1188.841" cy="-1377" rx="169.5189" ry="18"/>
<text text-anchor="middle" x="1188.841" y="-1372.8" font-family="Times,serif" font-size="14.00" fill="#000000">Multiple Information Systems Management*</text>
</g>
<!-- skill_4&#45;&gt;skill_47 -->
<g id="edge32" class="edge">
<title>skill_4&#45;&gt;skill_47</title>
<path fill="none" stroke="#000000" d="M399.8662,-1648.436C466.392,-1637.8752 571.9064,-1618.7542 660.5732,-1592 844.3728,-1536.5407 1052.786,-1441.7604 1143.0983,-1399.0332"/>
<polygon fill="#000000" stroke="#000000" points="1144.7028,-1402.146 1152.2365,-1394.6966 1141.7016,-1395.822 1144.7028,-1402.146"/>
</g>
<!-- skill_49 -->
<g id="skill_49" class="node">
<title>skill_49</title>
<ellipse fill="none" stroke="#000000" cx="1188.841" cy="-2026" rx="97.0862" ry="18"/>
<text text-anchor="middle" x="1188.841" y="-2021.8" font-family="Times,serif" font-size="14.00" fill="#000000">Data Resiliency Patterns</text>
</g>
<!-- skill_4&#45;&gt;skill_49 -->
<g id="edge36" class="edge">
<title>skill_4&#45;&gt;skill_49</title>
<path fill="none" stroke="#000000" d="M387.2988,-1671.2064C456.4762,-1688.3276 581.356,-1718.8516 688.5732,-1743 821.1039,-1772.8497 893.6759,-1707.9199 987.6742,-1806 1046.9088,-1867.8069 959.1026,-1935.1617 1019.3316,-1996 1036.1655,-2013.0043 1059.0496,-2022.3068 1082.5529,-2027.0618"/>
<polygon fill="#000000" stroke="#000000" points="1082.1939,-2030.5522 1092.6479,-2028.8305 1083.402,-2023.6572 1082.1939,-2030.5522"/>
</g>
<!-- skill_5 -->
<g id="skill_5" class="node">
<title>skill_5</title>
<ellipse fill="none" stroke="#000000" cx="334.2866" cy="-1350" rx="57.0546" ry="18"/>
<text text-anchor="middle" x="334.2866" y="-1345.8" font-family="Times,serif" font-size="14.00" fill="#000000">Cloud Basics</text>
</g>
<!-- skill_6 -->
<g id="skill_6" class="node">
<title>skill_6</title>
<ellipse fill="none" stroke="#000000" cx="334.2866" cy="-1404" rx="112.0465" ry="18"/>
<text text-anchor="middle" x="334.2866" y="-1399.8" font-family="Times,serif" font-size="14.00" fill="#000000">Basics of one cloud platform</text>
</g>
<!-- skill_5&#45;&gt;skill_6 -->
<g id="edge5" class="edge">
<title>skill_5&#45;&gt;skill_6</title>
<path fill="none" stroke="#000000" d="M334.2866,-1368.1406C334.2866,-1370.6226 334.2866,-1373.1046 334.2866,-1375.5865"/>
<polygon fill="#000000" stroke="#000000" points="330.7867,-1375.7901 334.2866,-1385.7902 337.7867,-1375.7902 330.7867,-1375.7901"/>
</g>
<!-- skill_32 -->
<g id="skill_32" class="node">
<title>skill_32</title>
<ellipse fill="none" stroke="#000000" cx="835.9524" cy="-1350" rx="95.1914" ry="18"/>
<text text-anchor="middle" x="835.9524" y="-1345.8" font-family="Times,serif" font-size="14.00" fill="#000000">Other Cloud Platforms*</text>
</g>
<!-- skill_6&#45;&gt;skill_32 -->
<g id="edge15" class="edge">
<title>skill_6&#45;&gt;skill_32</title>
<path fill="none" stroke="#000000" d="M438.438,-1397.2528C502.6003,-1392.6321 586.4857,-1385.7574 660.5732,-1377 691.4954,-1373.3449 725.3389,-1368.3672 754.9766,-1363.681"/>
<polygon fill="#000000" stroke="#000000" points="755.5322,-1367.1367 764.8561,-1362.1053 754.4297,-1360.2241 755.5322,-1367.1367"/>
</g>
<!-- skill_33 -->
<g id="skill_33" class="node">
<title>skill_33</title>
<ellipse fill="none" stroke="#000000" cx="835.9524" cy="-1404" rx="147.2585" ry="18"/>
<text text-anchor="middle" x="835.9524" y="-1399.8" font-family="Times,serif" font-size="14.00" fill="#000000">Advanced usage of one cloud platform</text>
</g>
<!-- skill_6&#45;&gt;skill_33 -->
<g id="edge16" class="edge">
<title>skill_6&#45;&gt;skill_33</title>
<path fill="none" stroke="#000000" d="M446.8702,-1404C515.1582,-1404 603.3269,-1404 678.4624,-1404"/>
<polygon fill="#000000" stroke="#000000" points="678.501,-1407.5001 688.5009,-1404 678.5009,-1400.5001 678.501,-1407.5001"/>
</g>
<!-- skill_7 -->
<g id="skill_7" class="node">
<title>skill_7</title>
<ellipse fill="none" stroke="#000000" cx="334.2866" cy="-2080" rx="110.5842" ry="18"/>
<text text-anchor="middle" x="334.2866" y="-2075.8" font-family="Times,serif" font-size="14.00" fill="#000000">Relational Database Basics*</text>
</g>
<!-- skill_8 -->
<g id="skill_8" class="node">
<title>skill_8</title>
<ellipse fill="none" stroke="#000000" cx="334.2866" cy="-2026" rx="67.0387" ry="18"/>
<text text-anchor="middle" x="334.2866" y="-2021.8" font-family="Times,serif" font-size="14.00" fill="#000000">NoSQL Basics*</text>
</g>
<!-- skill_9 -->
<g id="skill_9" class="node">
<title>skill_9</title>
<ellipse fill="none" stroke="#000000" cx="334.2866" cy="-1836" rx="112.0293" ry="18"/>
<text text-anchor="middle" x="334.2866" y="-1831.8" font-family="Times,serif" font-size="14.00" fill="#000000">Service Architecture Basics*</text>
</g>
<!-- skill_41 -->
<g id="skill_41" class="node">
<title>skill_41</title>
<ellipse fill="none" stroke="#000000" cx="1188.841" cy="-1854" rx="58.4736" ry="18"/>
<text text-anchor="middle" x="1188.841" y="-1849.8" font-family="Times,serif" font-size="14.00" fill="#000000">Service Mesh</text>
</g>
<!-- skill_9&#45;&gt;skill_41 -->
<g id="edge22" class="edge">
<title>skill_9&#45;&gt;skill_41</title>
<path fill="none" stroke="#000000" d="M430.41,-1845.3126C501.6093,-1851.7264 601.0418,-1859.6695 688.5732,-1863 821.4109,-1868.0544 854.7736,-1865.9714 987.6742,-1863 1032.1104,-1862.0065 1082.0266,-1859.78 1121.0196,-1857.7902"/>
<polygon fill="#000000" stroke="#000000" points="1121.3939,-1861.2756 1131.1996,-1857.2635 1121.0321,-1854.285 1121.3939,-1861.2756"/>
</g>
<!-- skill_10 -->
<g id="skill_10" class="node">
<title>skill_10</title>
<ellipse fill="none" stroke="#000000" cx="334.2866" cy="-2774" rx="122.6618" ry="18"/>
<text text-anchor="middle" x="334.2866" y="-2769.8" font-family="Times,serif" font-size="14.00" fill="#000000">Malfunction root cause analysis</text>
</g>
<!-- skill_11 -->
<g id="skill_11" class="node">
<title>skill_11</title>
<ellipse fill="none" stroke="#000000" cx="334.2866" cy="-2162" rx="66.6764" ry="18"/>
<text text-anchor="middle" x="334.2866" y="-2157.8" font-family="Times,serif" font-size="14.00" fill="#000000">Agile principles</text>
</g>
<!-- skill_28 -->
<g id="skill_28" class="node">
<title>skill_28</title>
<ellipse fill="none" stroke="#000000" cx="334.2866" cy="-2216" rx="88.5312" ry="18"/>
<text text-anchor="middle" x="334.2866" y="-2211.8" font-family="Times,serif" font-size="14.00" fill="#000000">Emerging architecture</text>
</g>
<!-- skill_11&#45;&gt;skill_28 -->
<g id="edge9" class="edge">
<title>skill_11&#45;&gt;skill_28</title>
<path fill="none" stroke="#000000" d="M334.2866,-2180.1406C334.2866,-2182.6226 334.2866,-2185.1046 334.2866,-2187.5865"/>
<polygon fill="#000000" stroke="#000000" points="330.7867,-2187.7901 334.2866,-2197.7902 337.7867,-2187.7902 330.7867,-2187.7901"/>
</g>
<!-- skill_12 -->
<g id="skill_12" class="node">
<title>skill_12</title>
<ellipse fill="none" stroke="#000000" cx="334.2866" cy="-1944" rx="123.6211" ry="18"/>
<text text-anchor="middle" x="334.2866" y="-1939.8" font-family="Times,serif" font-size="14.00" fill="#000000">Message Oriented Middleware*</text>
</g>
<!-- skill_13 -->
<g id="skill_13" class="node">
<title>skill_13</title>
<ellipse fill="none" stroke="#000000" cx="334.2866" cy="-2964" rx="128.3455" ry="18"/>
<text text-anchor="middle" x="334.2866" y="-2959.8" font-family="Times,serif" font-size="14.00" fill="#000000">Code &amp; Programming Awareness</text>
</g>
<!-- skill_26 -->
<g id="skill_26" class="node">
<title>skill_26</title>
<ellipse fill="none" stroke="#000000" cx="835.9524" cy="-2964" rx="51.725" ry="18"/>
<text text-anchor="middle" x="835.9524" y="-2959.8" font-family="Times,serif" font-size="14.00" fill="#000000">Clean Code</text>
</g>
<!-- skill_13&#45;&gt;skill_26 -->
<g id="edge8" class="edge">
<title>skill_13&#45;&gt;skill_26</title>
<path fill="none" stroke="#000000" d="M462.8266,-2964C562.707,-2964 696.8392,-2964 774.0888,-2964"/>
<polygon fill="#000000" stroke="#000000" points="774.1416,-2967.5001 784.1416,-2964 774.1416,-2960.5001 774.1416,-2967.5001"/>
</g>
<!-- skill_14 -->
<g id="skill_14" class="node">
<title>skill_14</title>
<ellipse fill="none" stroke="#000000" cx="334.2866" cy="-3100" rx="69.0992" ry="18"/>
<text text-anchor="middle" x="334.2866" y="-3095.8" font-family="Times,serif" font-size="14.00" fill="#000000">Security Basics*</text>
</g>
<!-- skill_15 -->
<g id="skill_15" class="node">
<title>skill_15</title>
<ellipse fill="none" stroke="#000000" cx="334.2866" cy="-2910" rx="153.989" ry="18"/>
<text text-anchor="middle" x="334.2866" y="-2905.8" font-family="Times,serif" font-size="14.00" fill="#000000">Unit testing &amp; Test Driven Development</text>
</g>
<!-- skill_16 -->
<g id="skill_16" class="node">
<title>skill_16</title>
<ellipse fill="none" stroke="#000000" cx="334.2866" cy="-1540" rx="59.4686" ry="18"/>
<text text-anchor="middle" x="334.2866" y="-1535.8" font-family="Times,serif" font-size="14.00" fill="#000000">IS monitoring</text>
</g>
<!-- skill_46 -->
<g id="skill_46" class="node">
<title>skill_46</title>
<ellipse fill="none" stroke="#000000" cx="1188.841" cy="-1540" rx="89.8711" ry="18"/>
<text text-anchor="middle" x="1188.841" y="-1535.8" font-family="Times,serif" font-size="14.00" fill="#000000">Supervision Advanced</text>
</g>
<!-- skill_16&#45;&gt;skill_46 -->
<g id="edge28" class="edge">
<title>skill_16&#45;&gt;skill_46</title>
<path fill="none" stroke="#000000" d="M394.0376,-1540C538.7408,-1540 909.2382,-1540 1088.5841,-1540"/>
<polygon fill="#000000" stroke="#000000" points="1088.8098,-1543.5001 1098.8097,-1540 1088.8097,-1536.5001 1088.8098,-1543.5001"/>
</g>
<!-- skill_17 -->
<g id="skill_17" class="node">
<title>skill_17</title>
<ellipse fill="none" stroke="#000000" cx="334.2866" cy="-2325" rx="79.2375" ry="18"/>
<text text-anchor="middle" x="334.2866" y="-2320.8" font-family="Times,serif" font-size="14.00" fill="#000000">Integration testing*</text>
</g>
<!-- skill_34 -->
<g id="skill_34" class="node">
<title>skill_34</title>
<ellipse fill="none" stroke="#000000" cx="835.9524" cy="-2352" rx="81.1496" ry="18"/>
<text text-anchor="middle" x="835.9524" y="-2347.8" font-family="Times,serif" font-size="14.00" fill="#000000">Performance testing</text>
</g>
<!-- skill_17&#45;&gt;skill_34 -->
<g id="edge18" class="edge">
<title>skill_17&#45;&gt;skill_34</title>
<path fill="none" stroke="#000000" d="M411.2985,-2329.1448C501.6654,-2334.0084 651.2475,-2342.0591 746.6255,-2347.1924"/>
<polygon fill="#000000" stroke="#000000" points="746.6564,-2350.699 756.8301,-2347.7416 747.0327,-2343.7091 746.6564,-2350.699"/>
</g>
<!-- skill_35 -->
<g id="skill_35" class="node">
<title>skill_35</title>
<ellipse fill="none" stroke="#000000" cx="835.9524" cy="-2298" rx="85.2255" ry="18"/>
<text text-anchor="middle" x="835.9524" y="-2293.8" font-family="Times,serif" font-size="14.00" fill="#000000">Testable Architecture</text>
</g>
<!-- skill_17&#45;&gt;skill_35 -->
<g id="edge19" class="edge">
<title>skill_17&#45;&gt;skill_35</title>
<path fill="none" stroke="#000000" d="M411.2985,-2320.8552C500.4729,-2316.0557 647.3099,-2308.1529 742.8215,-2303.0124"/>
<polygon fill="#000000" stroke="#000000" points="743.2549,-2306.4942 753.0524,-2302.4617 742.8787,-2299.5043 743.2549,-2306.4942"/>
</g>
<!-- skill_18 -->
<g id="skill_18" class="node">
<title>skill_18</title>
<ellipse fill="none" stroke="#000000" cx="334.2866" cy="-3046" rx="78.7539" ry="18"/>
<text text-anchor="middle" x="334.2866" y="-3041.8" font-family="Times,serif" font-size="14.00" fill="#000000">IS Security theory*</text>
</g>
<!-- skill_19 -->
<g id="skill_19" class="node">
<title>skill_19</title>
<ellipse fill="none" stroke="#000000" cx="334.2866" cy="-2856" rx="129.1928" ry="18"/>
<text text-anchor="middle" x="334.2866" y="-2851.8" font-family="Times,serif" font-size="14.00" fill="#000000">Software Development Workflow</text>
</g>
<!-- skill_20 -->
<g id="skill_20" class="node">
<title>skill_20</title>
<ellipse fill="none" stroke="#000000" cx="334.2866" cy="-1890" rx="109.6238" ry="18"/>
<text text-anchor="middle" x="334.2866" y="-1885.8" font-family="Times,serif" font-size="14.00" fill="#000000">Data Integration Principles*</text>
</g>
<!-- skill_20&#45;&gt;skill_9 -->
<g id="edge6" class="edge">
<title>skill_20&#45;&gt;skill_9</title>
<path fill="none" stroke="#000000" d="M334.2866,-1871.7902C334.2866,-1869.3082 334.2866,-1866.8262 334.2866,-1864.3443"/>
<polygon fill="#000000" stroke="#000000" points="337.7867,-1864.1406 334.2866,-1854.1406 330.7867,-1864.1407 337.7867,-1864.1406"/>
</g>
<!-- skill_20&#45;&gt;skill_12 -->
<g id="edge7" class="edge">
<title>skill_20&#45;&gt;skill_12</title>
<path fill="none" stroke="#000000" d="M334.2866,-1908.1406C334.2866,-1910.6226 334.2866,-1913.1046 334.2866,-1915.5865"/>
<polygon fill="#000000" stroke="#000000" points="330.7867,-1915.7901 334.2866,-1925.7902 337.7867,-1915.7902 330.7867,-1915.7901"/>
</g>
<!-- skill_29 -->
<g id="skill_29" class="node">
<title>skill_29</title>
<ellipse fill="none" stroke="#000000" cx="835.9524" cy="-2026" rx="102.3642" ry="18"/>
<text text-anchor="middle" x="835.9524" y="-2021.8" font-family="Times,serif" font-size="14.00" fill="#000000">Data Governance Patterns</text>
</g>
<!-- skill_20&#45;&gt;skill_29 -->
<g id="edge11" class="edge">
<title>skill_20&#45;&gt;skill_29</title>
<path fill="none" stroke="#000000" d="M402.4634,-1875.8149C474.2757,-1865.0028 586.9495,-1860.2872 660.5732,-1917 690.0841,-1939.7324 660.4572,-1971.5635 688.5732,-1996 699.9708,-2005.906 713.7401,-2012.8673 728.2279,-2017.7089"/>
<polygon fill="#000000" stroke="#000000" points="727.2503,-2021.0697 737.8345,-2020.5941 729.2638,-2014.3655 727.2503,-2021.0697"/>
</g>
<!-- skill_21 -->
<g id="skill_21" class="node">
<title>skill_21</title>
<ellipse fill="none" stroke="#000000" cx="334.2866" cy="-1486" rx="77.2995" ry="18"/>
<text text-anchor="middle" x="334.2866" y="-1481.8" font-family="Times,serif" font-size="14.00" fill="#000000">Log Management*</text>
</g>
<!-- skill_21&#45;&gt;skill_46 -->
<g id="edge29" class="edge">
<title>skill_21&#45;&gt;skill_46</title>
<path fill="none" stroke="#000000" d="M409.0003,-1490.7212C564.1075,-1500.5226 920.8734,-1523.0669 1092.7849,-1533.9301"/>
<polygon fill="#000000" stroke="#000000" points="1092.6345,-1537.4275 1102.8353,-1534.5652 1093.076,-1530.4415 1092.6345,-1537.4275"/>
</g>
<!-- skill_22 -->
<g id="skill_22" class="node">
<title>skill_22</title>
<ellipse fill="none" stroke="#000000" cx="835.9524" cy="-2652" rx="64.2881" ry="18"/>
<text text-anchor="middle" x="835.9524" y="-2647.8" font-family="Times,serif" font-size="14.00" fill="#000000">System basics*</text>
</g>
<!-- skill_23 -->
<g id="skill_23" class="node">
<title>skill_23</title>
<ellipse fill="none" stroke="#000000" cx="835.9524" cy="-2598" rx="70.5443" ry="18"/>
<text text-anchor="middle" x="835.9524" y="-2593.8" font-family="Times,serif" font-size="14.00" fill="#000000">Network Basics*</text>
</g>
<!-- skill_23&#45;&gt;skill_50 -->
<g id="edge37" class="edge">
<title>skill_23&#45;&gt;skill_50</title>
<path fill="none" stroke="#000000" d="M903.4019,-2603.4504C1004.2037,-2611.7152 1200.1012,-2628.2373 1366.3505,-2645 1382.1626,-2646.5943 1398.8468,-2648.3737 1415.226,-2650.1761"/>
<polygon fill="#000000" stroke="#000000" points="1415.0499,-2653.6779 1425.3744,-2651.2998 1415.8204,-2646.7204 1415.0499,-2653.6779"/>
</g>
<!-- skill_24 -->
<g id="skill_24" class="node">
<title>skill_24</title>
<ellipse fill="none" stroke="#000000" cx="835.9524" cy="-1944" rx="133.7531" ry="18"/>
<text text-anchor="middle" x="835.9524" y="-1939.8" font-family="Times,serif" font-size="14.00" fill="#000000">Event&#45;Driven Architecture Basics*</text>
</g>
<!-- skill_42 -->
<g id="skill_42" class="node">
<title>skill_42</title>
<ellipse fill="none" stroke="#000000" cx="1188.841" cy="-2080" rx="74.4103" ry="18"/>
<text text-anchor="middle" x="1188.841" y="-2075.8" font-family="Times,serif" font-size="14.00" fill="#000000">Fast Data Patterns</text>
</g>
<!-- skill_24&#45;&gt;skill_42 -->
<g id="edge24" class="edge">
<title>skill_24&#45;&gt;skill_42</title>
<path fill="none" stroke="#000000" d="M913.3033,-1958.7183C939.0582,-1966.5188 966.5372,-1978.3046 987.6742,-1996 1009.8938,-2014.6018 995.5944,-2036.3782 1019.3316,-2053 1043.8966,-2070.2015 1075.3429,-2078.0514 1104.4643,-2081.2438"/>
<polygon fill="#000000" stroke="#000000" points="1104.3728,-2084.7502 1114.6528,-2082.1864 1105.0178,-2077.7799 1104.3728,-2084.7502"/>
</g>
<!-- skill_25 -->
<g id="skill_25" class="node">
<title>skill_25</title>
<ellipse fill="none" stroke="#000000" cx="835.9524" cy="-1836" rx="101.9743" ry="18"/>
<text text-anchor="middle" x="835.9524" y="-1831.8" font-family="Times,serif" font-size="14.00" fill="#000000">Web Architecture Basics*</text>
</g>
<!-- skill_25&#45;&gt;skill_41 -->
<g id="edge21" class="edge">
<title>skill_25&#45;&gt;skill_41</title>
<path fill="none" stroke="#000000" d="M933.7829,-1840.9901C993.3785,-1844.0299 1068.0142,-1847.8369 1121.1184,-1850.5456"/>
<polygon fill="#000000" stroke="#000000" points="1120.9425,-1854.0411 1131.1079,-1851.0552 1121.2992,-1847.0502 1120.9425,-1854.0411"/>
</g>
<!-- skill_27 -->
<g id="skill_27" class="node">
<title>skill_27</title>
<ellipse fill="none" stroke="#000000" cx="835.9524" cy="-2080" rx="112.0711" ry="18"/>
<text text-anchor="middle" x="835.9524" y="-2075.8" font-family="Times,serif" font-size="14.00" fill="#000000">Fast Data Streaming Basics*</text>
</g>
<!-- skill_27&#45;&gt;skill_42 -->
<g id="edge23" class="edge">
<title>skill_27&#45;&gt;skill_42</title>
<path fill="none" stroke="#000000" d="M948.0935,-2080C998.6714,-2080 1057.4158,-2080 1104.2143,-2080"/>
<polygon fill="#000000" stroke="#000000" points="1104.315,-2083.5001 1114.315,-2080 1104.3149,-2076.5001 1104.315,-2083.5001"/>
</g>
<!-- skill_28&#45;&gt;skill_29 -->
<g id="edge10" class="edge">
<title>skill_28&#45;&gt;skill_29</title>
<path fill="none" stroke="#000000" d="M391.4217,-2229.8338C463.4882,-2243.5909 586.874,-2254.3147 660.5732,-2189 706.7584,-2148.0692 644.4619,-2096.1577 688.5732,-2053 698.6726,-2043.119 711.1209,-2036.2155 724.4669,-2031.4708"/>
<polygon fill="#000000" stroke="#000000" points="725.8248,-2034.7133 734.3227,-2028.3858 723.7337,-2028.0329 725.8248,-2034.7133"/>
</g>
<!-- skill_28&#45;&gt;skill_35 -->
<g id="edge20" class="edge">
<title>skill_28&#45;&gt;skill_35</title>
<path fill="none" stroke="#000000" d="M404.6555,-2226.9778C470.7623,-2237.3469 572.427,-2253.4375 660.5732,-2268 693.0204,-2273.3605 728.8121,-2279.4511 759.5546,-2284.7373"/>
<polygon fill="#000000" stroke="#000000" points="759.3257,-2288.2493 769.7746,-2286.4969 760.5135,-2281.3508 759.3257,-2288.2493"/>
</g>
<!-- skill_30&#45;&gt;skill_46 -->
<g id="edge30" class="edge">
<title>skill_30&#45;&gt;skill_46</title>
<path fill="none" stroke="#000000" d="M914.9537,-1637.998C938.557,-1633.1028 964.3511,-1627.0409 987.6742,-1620 1042.4705,-1603.4578 1103.2626,-1578.2859 1143.525,-1560.6057"/>
<polygon fill="#000000" stroke="#000000" points="1145.0676,-1563.7506 1152.7988,-1556.5063 1142.2375,-1557.3482 1145.0676,-1563.7506"/>
</g>
<!-- skill_32&#45;&gt;skill_47 -->
<g id="edge31" class="edge">
<title>skill_32&#45;&gt;skill_47</title>
<path fill="none" stroke="#000000" d="M924.5456,-1356.7784C959.8358,-1359.4785 1001.4209,-1362.6602 1041.0284,-1365.6906"/>
<polygon fill="#000000" stroke="#000000" points="1040.8125,-1369.1843 1051.0504,-1366.4574 1041.3466,-1362.2047 1040.8125,-1369.1843"/>
</g>
<!-- skill_34&#45;&gt;skill_48 -->
<g id="edge34" class="edge">
<title>skill_34&#45;&gt;skill_48</title>
<path fill="none" stroke="#000000" d="M884.9705,-2366.3614C915.1087,-2375.7864 954.2273,-2389.0997 987.6742,-2404 1047.2495,-2430.5404 1112.6004,-2468.7453 1152.1648,-2492.9652"/>
<polygon fill="#000000" stroke="#000000" points="1150.3347,-2495.9486 1160.6855,-2498.2094 1154.0038,-2489.9872 1150.3347,-2495.9486"/>
</g>
<!-- skill_35&#45;&gt;skill_48 -->
<g id="edge35" class="edge">
<title>skill_35&#45;&gt;skill_48</title>
<path fill="none" stroke="#000000" d="M917.4923,-2303.639C941.0495,-2307.5818 966.1821,-2314.1423 987.6742,-2325 1067.5002,-2365.3279 1137.3716,-2447.6561 1169.7243,-2489.8277"/>
<polygon fill="#000000" stroke="#000000" points="1167.042,-2492.0835 1175.8677,-2497.9451 1172.6237,-2487.8591 1167.042,-2492.0835"/>
</g>
<!-- skill_36 -->
<g id="skill_36" class="node">
<title>skill_36</title>
<ellipse fill="none" stroke="#000000" cx="835.9524" cy="-2774" rx="94.7155" ry="18"/>
<text text-anchor="middle" x="835.9524" y="-2769.8" font-family="Times,serif" font-size="14.00" fill="#000000">Blameless Post Mortem</text>
</g>
<!-- skill_37 -->
<g id="skill_37" class="node">
<title>skill_37</title>
<ellipse fill="none" stroke="#000000" cx="835.9524" cy="-3100" rx="82.1273" ry="18"/>
<text text-anchor="middle" x="835.9524" y="-3095.8" font-family="Times,serif" font-size="14.00" fill="#000000">Identity propagation</text>
</g>
<!-- skill_38 -->
<g id="skill_38" class="node">
<title>skill_38</title>
<ellipse fill="none" stroke="#000000" cx="835.9524" cy="-3046" rx="138.1215" ry="18"/>
<text text-anchor="middle" x="835.9524" y="-3041.8" font-family="Times,serif" font-size="14.00" fill="#000000">Identity Access Management Basics</text>
</g>
<!-- skill_39 -->
<g id="skill_39" class="node">
<title>skill_39</title>
<ellipse fill="none" stroke="#000000" cx="1188.841" cy="-1754" rx="115.4364" ry="18"/>
<text text-anchor="middle" x="1188.841" y="-1749.8" font-family="Times,serif" font-size="14.00" fill="#000000">BigData Architecture Basics*</text>
</g>
<!-- skill_40 -->
<g id="skill_40" class="node">
<title>skill_40</title>
<ellipse fill="none" stroke="#000000" cx="835.9524" cy="-1706" rx="78.7617" ry="18"/>
<text text-anchor="middle" x="835.9524" y="-1701.8" font-family="Times,serif" font-size="14.00" fill="#000000">Scalability Patterns</text>
</g>
<!-- skill_40&#45;&gt;skill_34 -->
<g id="edge17" class="edge">
<title>skill_40&#45;&gt;skill_34</title>
<path fill="none" stroke="#000000" d="M793.3892,-1721.2647C754.5327,-1737.7485 699.4783,-1768.1248 674.5732,-1815 661.514,-1839.5795 661.2358,-2291.5703 674.5732,-2316 689.0326,-2342.4848 718.8267,-2353.2893 748.9243,-2356.8251"/>
<polygon fill="#000000" stroke="#000000" points="748.844,-2360.3323 759.1213,-2357.7577 749.4816,-2353.3614 748.844,-2360.3323"/>
</g>
<!-- skill_40&#45;&gt;skill_45 -->
<g id="edge27" class="edge">
<title>skill_40&#45;&gt;skill_45</title>
<path fill="none" stroke="#000000" d="M914.7083,-1704.661C967.4881,-1703.7636 1037.297,-1702.5766 1093.2587,-1701.6251"/>
<polygon fill="#000000" stroke="#000000" points="1093.6006,-1705.1199 1103.5396,-1701.4503 1093.4815,-1698.1209 1093.6006,-1705.1199"/>
</g>
<!-- skill_43 -->
<g id="skill_43" class="node">
<title>skill_43</title>
<ellipse fill="none" stroke="#000000" cx="1188.841" cy="-1646" rx="114.9432" ry="18"/>
<text text-anchor="middle" x="1188.841" y="-1641.8" font-family="Times,serif" font-size="14.00" fill="#000000">Distributed Data Architecture</text>
</g>
<!-- level__1 -->
<g id="node79" class="node">
<title>level__1</title>
<text text-anchor="middle" x="334.2866" y="-3169.8" font-family="Times,serif" font-size="14.00" fill="#000000">Beginner</text>
</g>
<!-- level__2 -->
<g id="node80" class="node">
<title>level__2</title>
<text text-anchor="middle" x="835.9524" y="-3169.8" font-family="Times,serif" font-size="14.00" fill="#000000">Experienced</text>
</g>
<!-- level__1&#45;&gt;level__2 -->
<g id="edge39" class="edge">
<title>level__1&#45;&gt;level__2</title>
<path fill="none" stroke="#000000" d="M367.9813,-3174C453.3631,-3174 678.7714,-3174 782.4236,-3174"/>
<polygon fill="#000000" stroke="#000000" points="782.6615,-3177.5001 792.6615,-3174 782.6614,-3170.5001 782.6615,-3177.5001"/>
</g>
<!-- level__3 -->
<g id="node81" class="node">
<title>level__3</title>
<text text-anchor="middle" x="1188.841" y="-3169.8" font-family="Times,serif" font-size="14.00" fill="#000000">Advanced</text>
</g>
<!-- level__2&#45;&gt;level__3 -->
<g id="edge40" class="edge">
<title>level__2&#45;&gt;level__3</title>
<path fill="none" stroke="#000000" d="M879.2235,-3174C946.0086,-3174 1073.6502,-3174 1142.3396,-3174"/>
<polygon fill="#000000" stroke="#000000" points="1142.4359,-3177.5001 1152.4358,-3174 1142.4358,-3170.5001 1142.4359,-3177.5001"/>
</g>
<!-- level__4 -->
<g id="node82" class="node">
<title>level__4</title>
<text text-anchor="middle" x="1525.5368" y="-3169.8" font-family="Times,serif" font-size="14.00" fill="#000000">Expert</text>
</g>
<!-- level__3&#45;&gt;level__4 -->
<g id="edge41" class="edge">
<title>level__3&#45;&gt;level__4</title>
<path fill="none" stroke="#000000" d="M1225.1933,-3174C1289.6237,-3174 1423.1814,-3174 1488.2639,-3174"/>
<polygon fill="#000000" stroke="#000000" points="1488.473,-3177.5001 1498.473,-3174 1488.4729,-3170.5001 1488.473,-3177.5001"/>
</g>
</g>
</svg>
