<?xml version="1.0" encoding="UTF-8" standalone="no"?>
<!DOCTYPE svg PUBLIC "-//W3C//DTD SVG 1.1//EN"
 "http://www.w3.org/Graphics/SVG/1.1/DTD/svg11.dtd">
<!-- Generated by graphviz version 2.40.1 (20161225.0304)
 -->
<!-- Title: skills Pages: 1 -->
<svg width="1681pt" height="3244pt"
 viewBox="0.00 0.00 1680.72 3244.00" xmlns="http://www.w3.org/2000/svg" xmlns:xlink="http://www.w3.org/1999/xlink">
<g id="graph0" class="graph" transform="scale(1 1) rotate(0) translate(4 3240)">
<title>skills</title>
<polygon fill="#ffffff" stroke="transparent" points="-4,4 -4,-3240 1676.7231,-3240 1676.7231,4 -4,4"/>
<text text-anchor="middle" x="836.3615" y="-3193.6" font-family="Times,serif" font-size="48.00" fill="#000000">What should an IS architect know?</text>
<g id="clust1" class="cluster">
<title>cluster_skill_details</title>
<polygon fill="none" stroke="#000000" stroke-width="2" points="8,-8 8,-1280 660.5732,-1280 660.5732,-8 8,-8"/>
<text text-anchor="middle" x="334.2866" y="-1256.8" font-family="Times,serif" font-size="24.00" fill="#000000">Skills Descriptions</text>
</g>
<g id="clust7" class="cluster">
<title>cluster_0</title>
<polygon fill="none" stroke="#000000" points="199.7466,-2478 199.7466,-2552 1333.2004,-2552 1333.2004,-2478 199.7466,-2478"/>
<text text-anchor="middle" x="766.4735" y="-2536.8" font-family="Times,serif" font-size="14.00" fill="#000000">Deployment</text>
</g>
<g id="clust8" class="cluster">
<title>cluster_1</title>
<polygon fill="none" stroke="#000000" points="186.7318,-2288 186.7318,-2470 1366.3505,-2470 1366.3505,-2288 186.7318,-2288"/>
<text text-anchor="middle" x="776.5412" y="-2454.8" font-family="Times,serif" font-size="14.00" fill="#000000">Cloud</text>
</g>
<g id="clust9" class="cluster">
<title>cluster_2</title>
<polygon fill="none" stroke="#000000" points="242.2712,-2560 242.2712,-2728 1664.7231,-2728 1664.7231,-2560 242.2712,-2560"/>
<text text-anchor="middle" x="953.4972" y="-2712.8" font-family="Times,serif" font-size="14.00" fill="#000000">Ops</text>
</g>
<g id="clust10" class="cluster">
<title>cluster_3</title>
<polygon fill="none" stroke="#000000" points="249.1284,-1470 249.1284,-1652 1312.059,-1652 1312.059,-1470 249.1284,-1470"/>
<text text-anchor="middle" x="780.5937" y="-1636.8" font-family="Times,serif" font-size="14.00" fill="#000000">Distributed Architecture</text>
</g>
<g id="clust11" class="cluster">
<title>cluster_4</title>
<polygon fill="none" stroke="#000000" points="215.4947,-1880 215.4947,-2008 1293.8841,-2008 1293.8841,-1880 215.4947,-1880"/>
<text text-anchor="middle" x="754.6894" y="-1992.8" font-family="Times,serif" font-size="14.00" fill="#000000">Data Architecture</text>
</g>
<g id="clust12" class="cluster">
<title>cluster_5</title>
<polygon fill="none" stroke="#000000" points="202.7261,-1660 202.7261,-1842 1255.3278,-1842 1255.3278,-1660 202.7261,-1660"/>
<text text-anchor="middle" x="729.027" y="-1826.8" font-family="Times,serif" font-size="14.00" fill="#000000">IS Architecture</text>
</g>
<g id="clust13" class="cluster">
<title>cluster_6</title>
<polygon fill="none" stroke="#000000" points="203.4558,-2736 203.4558,-2810 938.5601,-2810 938.5601,-2736 203.4558,-2736"/>
<text text-anchor="middle" x="571.008" y="-2794.8" font-family="Times,serif" font-size="14.00" fill="#000000">Investigation</text>
</g>
<g id="clust14" class="cluster">
<title>cluster_7</title>
<polygon fill="none" stroke="#000000" points="237.5213,-2016 237.5213,-2144 431.0519,-2144 431.0519,-2016 237.5213,-2016"/>
<text text-anchor="middle" x="334.2866" y="-2128.8" font-family="Times,serif" font-size="14.00" fill="#000000">Agile</text>
</g>
<g id="clust15" class="cluster">
<title>cluster_8</title>
<polygon fill="none" stroke="#000000" points="172.2921,-2818 172.2921,-3000 895.5648,-3000 895.5648,-2818 172.2921,-2818"/>
<text text-anchor="middle" x="533.9285" y="-2984.8" font-family="Times,serif" font-size="14.00" fill="#000000">Software Design &amp; Development practice</text>
</g>
<g id="clust16" class="cluster">
<title>cluster_9</title>
<polygon fill="none" stroke="#000000" points="247.4098,-3008 247.4098,-3136 982.0131,-3136 982.0131,-3008 247.4098,-3008"/>
<text text-anchor="middle" x="614.7115" y="-3120.8" font-family="Times,serif" font-size="14.00" fill="#000000">Security</text>
</g>
<g id="clust17" class="cluster">
<title>cluster_10</title>
<polygon fill="none" stroke="#000000" points="249.137,-1334 249.137,-1462 1286.7765,-1462 1286.7765,-1334 249.137,-1334"/>
<text text-anchor="middle" x="767.9568" y="-1446.8" font-family="Times,serif" font-size="14.00" fill="#000000">Supervision</text>
</g>
<g id="clust18" class="cluster">
<title>cluster_11</title>
<polygon fill="none" stroke="#000000" points="247.1679,-2152 247.1679,-2280 929.3151,-2280 929.3151,-2152 247.1679,-2152"/>
<text text-anchor="middle" x="588.2415" y="-2264.8" font-family="Times,serif" font-size="14.00" fill="#000000">Testing</text>
</g>
<!-- description_39 -->
<g id="node1" class="node">
<title>description_39</title>
<text text-anchor="middle" x="334.2866" y="-1217.8" font-family="Times,serif" font-size="14.00" fill="#000000">BigData Architecture Basics: Hadoop, Cassandra, HDFS, HBase</text>
</g>
<!-- description_1 -->
<g id="node2" class="node">
<title>description_1</title>
<text text-anchor="middle" x="334.2866" y="-1163.8" font-family="Times,serif" font-size="14.00" fill="#000000">Cloud Native Applications Patterns: 12 factors apps</text>
</g>
<!-- description_31 -->
<g id="node3" class="node">
<title>description_31</title>
<text text-anchor="middle" x="334.2866" y="-1109.8" font-family="Times,serif" font-size="14.00" fill="#000000">Cloud&#45;Native Application Advanced: Details of a cloud&#45;oriented application stack: Netflix OSS, SpringBoot…</text>
</g>
<!-- description_48 -->
<g id="node4" class="node">
<title>description_48</title>
<text text-anchor="middle" x="334.2866" y="-1055.8" font-family="Times,serif" font-size="14.00" fill="#000000">Continuous Deploymen Advanced: ZDD…</text>
</g>
<!-- description_0 -->
<g id="node5" class="node">
<title>description_0</title>
<text text-anchor="middle" x="334.2866" y="-1001.8" font-family="Times,serif" font-size="14.00" fill="#000000">Continuous Deployment Basics: ZDD, blue green etc.</text>
</g>
<!-- description_20 -->
<g id="node6" class="node">
<title>description_20</title>
<text text-anchor="middle" x="334.2866" y="-947.8" font-family="Times,serif" font-size="14.00" fill="#000000">Data Integration Principles: Main integration patterns : messages, files, APIs …</text>
</g>
<!-- description_24 -->
<g id="node7" class="node">
<title>description_24</title>
<text text-anchor="middle" x="334.2866" y="-893.8" font-family="Times,serif" font-size="14.00" fill="#000000">Event&#45;Driven Architecture Basics: DDD, CQRS…</text>
</g>
<!-- description_27 -->
<g id="node8" class="node">
<title>description_27</title>
<text text-anchor="middle" x="334.2866" y="-839.8" font-family="Times,serif" font-size="14.00" fill="#000000">Fast Data Streaming Basics: Kafka</text>
</g>
<!-- description_18 -->
<g id="node9" class="node">
<title>description_18</title>
<text text-anchor="middle" x="334.2866" y="-785.8" font-family="Times,serif" font-size="14.00" fill="#000000">IS Security theory: PKI…</text>
</g>
<!-- description_2 -->
<g id="node10" class="node">
<title>description_2</title>
<text text-anchor="middle" x="334.2866" y="-731.8" font-family="Times,serif" font-size="14.00" fill="#000000">Infra as code basics: Theory + having used one infra as code tool</text>
</g>
<!-- description_17 -->
<g id="node11" class="node">
<title>description_17</title>
<text text-anchor="middle" x="334.2866" y="-677.8" font-family="Times,serif" font-size="14.00" fill="#000000">Integration testing: Tooling, processes, organisation</text>
</g>
<!-- description_21 -->
<g id="node12" class="node">
<title>description_21</title>
<text text-anchor="middle" x="334.2866" y="-623.8" font-family="Times,serif" font-size="14.00" fill="#000000">Log Management: Theory and standard tooling : Elasticsearch, Logstash, Kibana</text>
</g>
<!-- description_12 -->
<g id="node13" class="node">
<title>description_12</title>
<text text-anchor="middle" x="334.2866" y="-569.8" font-family="Times,serif" font-size="14.00" fill="#000000">Message Oriented Middleware: Theory + having used one MOM (Kafka, RabbitMQ …)</text>
</g>
<!-- description_47 -->
<g id="node14" class="node">
<title>description_47</title>
<text text-anchor="middle" x="334.2866" y="-515.8" font-family="Times,serif" font-size="14.00" fill="#000000">Multiple Information Systems Management: Legacy + Cloud / Multiclouds</text>
</g>
<!-- description_23 -->
<g id="node15" class="node">
<title>description_23</title>
<text text-anchor="middle" x="334.2866" y="-461.8" font-family="Times,serif" font-size="14.00" fill="#000000">Network Basics: DNS, DHCP</text>
</g>
<!-- description_8 -->
<g id="node16" class="node">
<title>description_8</title>
<text text-anchor="middle" x="334.2866" y="-407.8" font-family="Times,serif" font-size="14.00" fill="#000000">NoSQL Basics: Theory, using one document&#45;oriented database</text>
</g>
<!-- description_32 -->
<g id="node17" class="node">
<title>description_32</title>
<text text-anchor="middle" x="334.2866" y="-353.8" font-family="Times,serif" font-size="14.00" fill="#000000">Other Cloud Platforms: Using another cloud platform</text>
</g>
<!-- description_7 -->
<g id="node18" class="node">
<title>description_7</title>
<text text-anchor="middle" x="334.2866" y="-299.8" font-family="Times,serif" font-size="14.00" fill="#000000">Relational Database Basics: SQL, indexes…</text>
</g>
<!-- description_4 -->
<g id="node19" class="node">
<title>description_4</title>
<text text-anchor="middle" x="334.2866" y="-245.8" font-family="Times,serif" font-size="14.00" fill="#000000">Resiliency Basics: Design for failure, chaos monkey…</text>
</g>
<!-- description_14 -->
<g id="node20" class="node">
<title>description_14</title>
<text text-anchor="middle" x="334.2866" y="-191.8" font-family="Times,serif" font-size="14.00" fill="#000000">Security Basics: Principles, vocabulary…</text>
</g>
<!-- description_9 -->
<g id="node21" class="node">
<title>description_9</title>
<text text-anchor="middle" x="334.2866" y="-137.8" font-family="Times,serif" font-size="14.00" fill="#000000">Service Architecture Basics: SOA, microservices, REST, API Design …</text>
</g>
<!-- description_22 -->
<g id="node22" class="node">
<title>description_22</title>
<text text-anchor="middle" x="334.2866" y="-83.8" font-family="Times,serif" font-size="14.00" fill="#000000">System basics: ssh, admin system linux, package management, file system, process, services</text>
</g>
<!-- description_25 -->
<g id="node23" class="node">
<title>description_25</title>
<text text-anchor="middle" x="334.2866" y="-29.8" font-family="Times,serif" font-size="14.00" fill="#000000">Web Architecture Basics: SSL, TLS, LoadBalancer, Cache, WAF / WAM, Reverse proxy</text>
</g>
<!-- level_1 -->
<g id="node24" class="node">
<title>level_1</title>
<text text-anchor="middle" x="334.2866" y="-1301.8" font-family="Times,serif" font-size="14.00" fill="#000000">Beginner</text>
</g>
<!-- level_2 -->
<g id="node25" class="node">
<title>level_2</title>
<text text-anchor="middle" x="835.9524" y="-1301.8" font-family="Times,serif" font-size="14.00" fill="#000000">Experienced</text>
</g>
<!-- level_1&#45;&gt;level_2 -->
<g id="edge1" class="edge">
<title>level_1&#45;&gt;level_2</title>
<path fill="none" stroke="#000000" d="M367.9813,-1306C453.3631,-1306 678.7714,-1306 782.4236,-1306"/>
<polygon fill="#000000" stroke="#000000" points="782.6615,-1309.5001 792.6615,-1306 782.6614,-1302.5001 782.6615,-1309.5001"/>
</g>
<!-- level_3 -->
<g id="node26" class="node">
<title>level_3</title>
<text text-anchor="middle" x="1188.841" y="-1301.8" font-family="Times,serif" font-size="14.00" fill="#000000">Advanced</text>
</g>
<!-- level_2&#45;&gt;level_3 -->
<g id="edge2" class="edge">
<title>level_2&#45;&gt;level_3</title>
<path fill="none" stroke="#000000" d="M879.2235,-1306C946.0086,-1306 1073.6502,-1306 1142.3396,-1306"/>
<polygon fill="#000000" stroke="#000000" points="1142.4359,-1309.5001 1152.4358,-1306 1142.4358,-1302.5001 1142.4359,-1309.5001"/>
</g>
<!-- level_4 -->
<g id="node27" class="node">
<title>level_4</title>
<text text-anchor="middle" x="1525.5368" y="-1301.8" font-family="Times,serif" font-size="14.00" fill="#000000">Expert</text>
</g>
<!-- level_3&#45;&gt;level_4 -->
<g id="edge3" class="edge">
<title>level_3&#45;&gt;level_4</title>
<path fill="none" stroke="#000000" d="M1225.1933,-1306C1289.6237,-1306 1423.1814,-1306 1488.2639,-1306"/>
<polygon fill="#000000" stroke="#000000" points="1488.473,-1309.5001 1498.473,-1306 1488.4729,-1302.5001 1488.473,-1309.5001"/>
</g>
<!-- skill_0 -->
<g id="skill_0" class="node">
<title>skill_0</title>
<ellipse fill="none" stroke="#000000" cx="334.2866" cy="-2504" rx="126.5801" ry="18"/>
<text text-anchor="middle" x="334.2866" y="-2499.8" font-family="Times,serif" font-size="14.00" fill="#000000">Continuous Deployment Basics*</text>
</g>
<!-- skill_31 -->
<g id="skill_31" class="node">
<title>skill_31</title>
<ellipse fill="none" stroke="#000000" cx="835.9524" cy="-2422" rx="143.9438" ry="18"/>
<text text-anchor="middle" x="835.9524" y="-2417.8" font-family="Times,serif" font-size="14.00" fill="#000000">Cloud&#45;Native Application Advanced*</text>
</g>
<!-- skill_0&#45;&gt;skill_31 -->
<g id="edge14" class="edge">
<title>skill_0&#45;&gt;skill_31</title>
<path fill="none" stroke="#000000" d="M455.1768,-2498.5616C517.0221,-2494.3487 593.2588,-2486.9434 660.5732,-2474 700.4538,-2466.3316 744.2527,-2453.3493 778.1043,-2442.2752"/>
<polygon fill="#000000" stroke="#000000" points="779.4309,-2445.5229 787.825,-2439.0584 777.2317,-2438.8773 779.4309,-2445.5229"/>
</g>
<!-- skill_48 -->
<g id="skill_48" class="node">
<title>skill_48</title>
<ellipse fill="none" stroke="#000000" cx="1188.841" cy="-2504" rx="136.2189" ry="18"/>
<text text-anchor="middle" x="1188.841" y="-2499.8" font-family="Times,serif" font-size="14.00" fill="#000000">Continuous Deploymen Advanced*</text>
</g>
<!-- skill_0&#45;&gt;skill_48 -->
<g id="edge33" class="edge">
<title>skill_0&#45;&gt;skill_48</title>
<path fill="none" stroke="#000000" d="M460.8389,-2504C615.9085,-2504 878.1665,-2504 1041.969,-2504"/>
<polygon fill="#000000" stroke="#000000" points="1042.1264,-2507.5001 1052.1264,-2504 1042.1263,-2500.5001 1042.1264,-2507.5001"/>
</g>
<!-- skill_1 -->
<g id="skill_1" class="node">
<title>skill_1</title>
<ellipse fill="none" stroke="#000000" cx="334.2866" cy="-2422" rx="139.6096" ry="18"/>
<text text-anchor="middle" x="334.2866" y="-2417.8" font-family="Times,serif" font-size="14.00" fill="#000000">Cloud Native Applications Patterns*</text>
</g>
<!-- skill_1&#45;&gt;skill_31 -->
<g id="edge13" class="edge">
<title>skill_1&#45;&gt;skill_31</title>
<path fill="none" stroke="#000000" d="M474.0285,-2422C538.695,-2422 615.7064,-2422 682.0339,-2422"/>
<polygon fill="#000000" stroke="#000000" points="682.1611,-2425.5001 692.161,-2422 682.161,-2418.5001 682.1611,-2425.5001"/>
</g>
<!-- skill_2 -->
<g id="skill_2" class="node">
<title>skill_2</title>
<ellipse fill="none" stroke="#000000" cx="334.2866" cy="-2678" rx="84.0308" ry="18"/>
<text text-anchor="middle" x="334.2866" y="-2673.8" font-family="Times,serif" font-size="14.00" fill="#000000">Infra as code basics*</text>
</g>
<!-- skill_44 -->
<g id="skill_44" class="node">
<title>skill_44</title>
<ellipse fill="none" stroke="#000000" cx="1188.841" cy="-2660" rx="91.2384" ry="18"/>
<text text-anchor="middle" x="1188.841" y="-2655.8" font-family="Times,serif" font-size="14.00" fill="#000000">Infra as code advanced</text>
</g>
<!-- skill_2&#45;&gt;skill_44 -->
<g id="edge25" class="edge">
<title>skill_2&#45;&gt;skill_44</title>
<path fill="none" stroke="#000000" d="M418.3139,-2677.0346C542.0472,-2675.509 780.5419,-2672.1717 983.3316,-2667 1017.6951,-2666.1236 1055.2824,-2664.9162 1088.8069,-2663.7507"/>
<polygon fill="#000000" stroke="#000000" points="1089.2014,-2667.2392 1099.0725,-2663.3908 1088.956,-2660.2435 1089.2014,-2667.2392"/>
</g>
<!-- skill_50 -->
<g id="skill_50" class="node">
<title>skill_50</title>
<ellipse fill="none" stroke="#000000" cx="1525.5368" cy="-2651" rx="131.3729" ry="18"/>
<text text-anchor="middle" x="1525.5368" y="-2646.8" font-family="Times,serif" font-size="14.00" fill="#000000">Software Defined Network (SDN)</text>
</g>
<!-- skill_2&#45;&gt;skill_50 -->
<g id="edge38" class="edge">
<title>skill_2&#45;&gt;skill_50</title>
<path fill="none" stroke="#000000" d="M411.968,-2684.9985C584.3681,-2699.1488 1011.7531,-2726.5962 1366.3505,-2687 1396.9557,-2683.5825 1430.2664,-2676.578 1458.4689,-2669.6482"/>
<polygon fill="#000000" stroke="#000000" points="1459.3687,-2673.031 1468.2186,-2667.2062 1457.6679,-2666.2408 1459.3687,-2673.031"/>
</g>
<!-- skill_3 -->
<g id="skill_3" class="node">
<title>skill_3</title>
<ellipse fill="none" stroke="#000000" cx="334.2866" cy="-2624" rx="78.6074" ry="18"/>
<text text-anchor="middle" x="334.2866" y="-2619.8" font-family="Times,serif" font-size="14.00" fill="#000000">DevOps Awareness</text>
</g>
<!-- skill_3&#45;&gt;skill_2 -->
<g id="edge4" class="edge">
<title>skill_3&#45;&gt;skill_2</title>
<path fill="none" stroke="#000000" d="M334.2866,-2642.1406C334.2866,-2644.6226 334.2866,-2647.1046 334.2866,-2649.5865"/>
<polygon fill="#000000" stroke="#000000" points="330.7867,-2649.7901 334.2866,-2659.7902 337.7867,-2649.7902 330.7867,-2649.7901"/>
</g>
<!-- skill_4 -->
<g id="skill_4" class="node">
<title>skill_4</title>
<ellipse fill="none" stroke="#000000" cx="334.2866" cy="-1601" rx="77.3168" ry="18"/>
<text text-anchor="middle" x="334.2866" y="-1596.8" font-family="Times,serif" font-size="14.00" fill="#000000">Resiliency Basics*</text>
</g>
<!-- skill_30 -->
<g id="skill_30" class="node">
<title>skill_30</title>
<ellipse fill="none" stroke="#000000" cx="835.9524" cy="-1500" rx="125.5765" ry="18"/>
<text text-anchor="middle" x="835.9524" y="-1495.8" font-family="Times,serif" font-size="14.00" fill="#000000">Distributed Orchestration Basics</text>
</g>
<!-- skill_4&#45;&gt;skill_30 -->
<g id="edge12" class="edge">
<title>skill_4&#45;&gt;skill_30</title>
<path fill="none" stroke="#000000" d="M390.9574,-1588.7125C460.8352,-1573.6656 583.2851,-1547.637 688.5732,-1527 707.485,-1523.2932 727.7939,-1519.4706 747.1074,-1515.9097"/>
<polygon fill="#000000" stroke="#000000" points="747.9007,-1519.3226 757.1037,-1514.0734 746.6359,-1512.4378 747.9007,-1519.3226"/>
</g>
<!-- skill_45 -->
<g id="skill_45" class="node">
<title>skill_45</title>
<ellipse fill="none" stroke="#000000" cx="1188.841" cy="-1550" rx="85.493" ry="18"/>
<text text-anchor="middle" x="1188.841" y="-1545.8" font-family="Times,serif" font-size="14.00" fill="#000000">Advanced Resiliency</text>
</g>
<!-- skill_4&#45;&gt;skill_45 -->
<g id="edge26" class="edge">
<title>skill_4&#45;&gt;skill_45</title>
<path fill="none" stroke="#000000" d="M411.8957,-1601.584C533.8243,-1601.8316 777.5858,-1599.6213 983.3316,-1581 1007.6547,-1578.7986 1063.7191,-1570.2571 1111.1543,-1562.6962"/>
<polygon fill="#000000" stroke="#000000" points="1111.8093,-1566.136 1121.1309,-1561.1003 1110.7036,-1559.2239 1111.8093,-1566.136"/>
</g>
<!-- skill_47 -->
<g id="skill_47" class="node">
<title>skill_47</title>
<ellipse fill="none" stroke="#000000" cx="1188.841" cy="-2314" rx="169.5189" ry="18"/>
<text text-anchor="middle" x="1188.841" y="-2309.8" font-family="Times,serif" font-size="14.00" fill="#000000">Multiple Information Systems Management*</text>
</g>
<!-- skill_4&#45;&gt;skill_47 -->
<g id="edge32" class="edge">
<title>skill_4&#45;&gt;skill_47</title>
<path fill="none" stroke="#000000" d="M400.1688,-1591.5294C474.3345,-1584.9275 593.2409,-1587.2608 660.5732,-1656 720.3021,-1716.9769 626.8778,-1787.0135 688.5732,-1846 736.1624,-1891.4996 933.2607,-1833.2467 983.3316,-1876 1030.8823,-1916.6013 995.8423,-1954.0536 1019.3316,-2012 1062.7996,-2119.2325 1136.7062,-2235.9071 1170.7234,-2287.2294"/>
<polygon fill="#000000" stroke="#000000" points="1167.9449,-2289.3716 1176.404,-2295.7508 1173.7694,-2285.4888 1167.9449,-2289.3716"/>
</g>
<!-- skill_49 -->
<g id="skill_49" class="node">
<title>skill_49</title>
<ellipse fill="none" stroke="#000000" cx="1188.841" cy="-1906" rx="97.0862" ry="18"/>
<text text-anchor="middle" x="1188.841" y="-1901.8" font-family="Times,serif" font-size="14.00" fill="#000000">Data Resiliency Patterns</text>
</g>
<!-- skill_4&#45;&gt;skill_49 -->
<g id="edge36" class="edge">
<title>skill_4&#45;&gt;skill_49</title>
<path fill="none" stroke="#000000" d="M411.503,-1602.3882C574.3885,-1606.0451 941.665,-1618.4076 983.3316,-1656 1047.1449,-1713.5736 963.3786,-1780.761 1019.3316,-1846 1039.6907,-1869.738 1070.0724,-1884.0855 1099.5153,-1892.757"/>
<polygon fill="#000000" stroke="#000000" points="1098.8786,-1896.2117 1109.4485,-1895.4855 1100.7327,-1889.4617 1098.8786,-1896.2117"/>
</g>
<!-- skill_5 -->
<g id="skill_5" class="node">
<title>skill_5</title>
<ellipse fill="none" stroke="#000000" cx="334.2866" cy="-2314" rx="57.0546" ry="18"/>
<text text-anchor="middle" x="334.2866" y="-2309.8" font-family="Times,serif" font-size="14.00" fill="#000000">Cloud Basics</text>
</g>
<!-- skill_6 -->
<g id="skill_6" class="node">
<title>skill_6</title>
<ellipse fill="none" stroke="#000000" cx="334.2866" cy="-2368" rx="112.0465" ry="18"/>
<text text-anchor="middle" x="334.2866" y="-2363.8" font-family="Times,serif" font-size="14.00" fill="#000000">Basics of one cloud platform</text>
</g>
<!-- skill_5&#45;&gt;skill_6 -->
<g id="edge5" class="edge">
<title>skill_5&#45;&gt;skill_6</title>
<path fill="none" stroke="#000000" d="M334.2866,-2332.1406C334.2866,-2334.6226 334.2866,-2337.1046 334.2866,-2339.5865"/>
<polygon fill="#000000" stroke="#000000" points="330.7867,-2339.7901 334.2866,-2349.7902 337.7867,-2339.7902 330.7867,-2339.7901"/>
</g>
<!-- skill_32 -->
<g id="skill_32" class="node">
<title>skill_32</title>
<ellipse fill="none" stroke="#000000" cx="835.9524" cy="-2314" rx="95.1914" ry="18"/>
<text text-anchor="middle" x="835.9524" y="-2309.8" font-family="Times,serif" font-size="14.00" fill="#000000">Other Cloud Platforms*</text>
</g>
<!-- skill_6&#45;&gt;skill_32 -->
<g id="edge15" class="edge">
<title>skill_6&#45;&gt;skill_32</title>
<path fill="none" stroke="#000000" d="M438.438,-2361.2528C502.6003,-2356.6321 586.4857,-2349.7574 660.5732,-2341 691.4954,-2337.3449 725.3389,-2332.3672 754.9766,-2327.681"/>
<polygon fill="#000000" stroke="#000000" points="755.5322,-2331.1367 764.8561,-2326.1053 754.4297,-2324.2241 755.5322,-2331.1367"/>
</g>
<!-- skill_33 -->
<g id="skill_33" class="node">
<title>skill_33</title>
<ellipse fill="none" stroke="#000000" cx="835.9524" cy="-2368" rx="147.2585" ry="18"/>
<text text-anchor="middle" x="835.9524" y="-2363.8" font-family="Times,serif" font-size="14.00" fill="#000000">Advanced usage of one cloud platform</text>
</g>
<!-- skill_6&#45;&gt;skill_33 -->
<g id="edge16" class="edge">
<title>skill_6&#45;&gt;skill_33</title>
<path fill="none" stroke="#000000" d="M446.8702,-2368C515.1582,-2368 603.3269,-2368 678.4624,-2368"/>
<polygon fill="#000000" stroke="#000000" points="678.501,-2371.5001 688.5009,-2368 678.5009,-2364.5001 678.501,-2371.5001"/>
</g>
<!-- skill_7 -->
<g id="skill_7" class="node">
<title>skill_7</title>
<ellipse fill="none" stroke="#000000" cx="334.2866" cy="-1960" rx="110.5842" ry="18"/>
<text text-anchor="middle" x="334.2866" y="-1955.8" font-family="Times,serif" font-size="14.00" fill="#000000">Relational Database Basics*</text>
</g>
<!-- skill_8 -->
<g id="skill_8" class="node">
<title>skill_8</title>
<ellipse fill="none" stroke="#000000" cx="334.2866" cy="-1906" rx="67.0387" ry="18"/>
<text text-anchor="middle" x="334.2866" y="-1901.8" font-family="Times,serif" font-size="14.00" fill="#000000">NoSQL Basics*</text>
</g>
<!-- skill_9 -->
<g id="skill_9" class="node">
<title>skill_9</title>
<ellipse fill="none" stroke="#000000" cx="334.2866" cy="-1686" rx="112.0293" ry="18"/>
<text text-anchor="middle" x="334.2866" y="-1681.8" font-family="Times,serif" font-size="14.00" fill="#000000">Service Architecture Basics*</text>
</g>
<!-- skill_41 -->
<g id="skill_41" class="node">
<title>skill_41</title>
<ellipse fill="none" stroke="#000000" cx="1188.841" cy="-1704" rx="58.4736" ry="18"/>
<text text-anchor="middle" x="1188.841" y="-1699.8" font-family="Times,serif" font-size="14.00" fill="#000000">Service Mesh</text>
</g>
<!-- skill_9&#45;&gt;skill_41 -->
<g id="edge22" class="edge">
<title>skill_9&#45;&gt;skill_41</title>
<path fill="none" stroke="#000000" d="M430.41,-1695.3126C501.6093,-1701.7264 601.0418,-1709.6695 688.5732,-1713 819.4822,-1717.981 852.3593,-1715.8665 983.3316,-1713 1029.1507,-1711.9972 1080.6748,-1709.7382 1120.6704,-1707.7344"/>
<polygon fill="#000000" stroke="#000000" points="1121.0321,-1711.2206 1130.8417,-1707.2179 1120.6771,-1704.2296 1121.0321,-1711.2206"/>
</g>
<!-- skill_10 -->
<g id="skill_10" class="node">
<title>skill_10</title>
<ellipse fill="none" stroke="#000000" cx="334.2866" cy="-2762" rx="122.6618" ry="18"/>
<text text-anchor="middle" x="334.2866" y="-2757.8" font-family="Times,serif" font-size="14.00" fill="#000000">Malfunction root cause analysis</text>
</g>
<!-- skill_11 -->
<g id="skill_11" class="node">
<title>skill_11</title>
<ellipse fill="none" stroke="#000000" cx="334.2866" cy="-2042" rx="66.6764" ry="18"/>
<text text-anchor="middle" x="334.2866" y="-2037.8" font-family="Times,serif" font-size="14.00" fill="#000000">Agile principles</text>
</g>
<!-- skill_28 -->
<g id="skill_28" class="node">
<title>skill_28</title>
<ellipse fill="none" stroke="#000000" cx="334.2866" cy="-2096" rx="88.5312" ry="18"/>
<text text-anchor="middle" x="334.2866" y="-2091.8" font-family="Times,serif" font-size="14.00" fill="#000000">Emerging architecture</text>
</g>
<!-- skill_11&#45;&gt;skill_28 -->
<g id="edge9" class="edge">
<title>skill_11&#45;&gt;skill_28</title>
<path fill="none" stroke="#000000" d="M334.2866,-2060.1406C334.2866,-2062.6226 334.2866,-2065.1046 334.2866,-2067.5865"/>
<polygon fill="#000000" stroke="#000000" points="330.7867,-2067.7901 334.2866,-2077.7902 337.7867,-2067.7902 330.7867,-2067.7901"/>
</g>
<!-- skill_12 -->
<g id="skill_12" class="node">
<title>skill_12</title>
<ellipse fill="none" stroke="#000000" cx="334.2866" cy="-1794" rx="123.6211" ry="18"/>
<text text-anchor="middle" x="334.2866" y="-1789.8" font-family="Times,serif" font-size="14.00" fill="#000000">Message Oriented Middleware*</text>
</g>
<!-- skill_13 -->
<g id="skill_13" class="node">
<title>skill_13</title>
<ellipse fill="none" stroke="#000000" cx="334.2866" cy="-2952" rx="128.3455" ry="18"/>
<text text-anchor="middle" x="334.2866" y="-2947.8" font-family="Times,serif" font-size="14.00" fill="#000000">Code &amp; Programming Awareness</text>
</g>
<!-- skill_26 -->
<g id="skill_26" class="node">
<title>skill_26</title>
<ellipse fill="none" stroke="#000000" cx="835.9524" cy="-2952" rx="51.725" ry="18"/>
<text text-anchor="middle" x="835.9524" y="-2947.8" font-family="Times,serif" font-size="14.00" fill="#000000">Clean Code</text>
</g>
<!-- skill_13&#45;&gt;skill_26 -->
<g id="edge8" class="edge">
<title>skill_13&#45;&gt;skill_26</title>
<path fill="none" stroke="#000000" d="M462.8266,-2952C562.707,-2952 696.8392,-2952 774.0888,-2952"/>
<polygon fill="#000000" stroke="#000000" points="774.1416,-2955.5001 784.1416,-2952 774.1416,-2948.5001 774.1416,-2955.5001"/>
</g>
<!-- skill_14 -->
<g id="skill_14" class="node">
<title>skill_14</title>
<ellipse fill="none" stroke="#000000" cx="334.2866" cy="-3088" rx="69.0992" ry="18"/>
<text text-anchor="middle" x="334.2866" y="-3083.8" font-family="Times,serif" font-size="14.00" fill="#000000">Security Basics*</text>
</g>
<!-- skill_15 -->
<g id="skill_15" class="node">
<title>skill_15</title>
<ellipse fill="none" stroke="#000000" cx="334.2866" cy="-2898" rx="153.989" ry="18"/>
<text text-anchor="middle" x="334.2866" y="-2893.8" font-family="Times,serif" font-size="14.00" fill="#000000">Unit testing &amp; Test Driven Development</text>
</g>
<!-- skill_16 -->
<g id="skill_16" class="node">
<title>skill_16</title>
<ellipse fill="none" stroke="#000000" cx="334.2866" cy="-1414" rx="59.4686" ry="18"/>
<text text-anchor="middle" x="334.2866" y="-1409.8" font-family="Times,serif" font-size="14.00" fill="#000000">IS monitoring</text>
</g>
<!-- skill_46 -->
<g id="skill_46" class="node">
<title>skill_46</title>
<ellipse fill="none" stroke="#000000" cx="1188.841" cy="-1414" rx="89.8711" ry="18"/>
<text text-anchor="middle" x="1188.841" y="-1409.8" font-family="Times,serif" font-size="14.00" fill="#000000">Supervision Advanced</text>
</g>
<!-- skill_16&#45;&gt;skill_46 -->
<g id="edge28" class="edge">
<title>skill_16&#45;&gt;skill_46</title>
<path fill="none" stroke="#000000" d="M394.0376,-1414C538.7408,-1414 909.2382,-1414 1088.5841,-1414"/>
<polygon fill="#000000" stroke="#000000" points="1088.8098,-1417.5001 1098.8097,-1414 1088.8097,-1410.5001 1088.8098,-1417.5001"/>
</g>
<!-- skill_17 -->
<g id="skill_17" class="node">
<title>skill_17</title>
<ellipse fill="none" stroke="#000000" cx="334.2866" cy="-2205" rx="79.2375" ry="18"/>
<text text-anchor="middle" x="334.2866" y="-2200.8" font-family="Times,serif" font-size="14.00" fill="#000000">Integration testing*</text>
</g>
<!-- skill_34 -->
<g id="skill_34" class="node">
<title>skill_34</title>
<ellipse fill="none" stroke="#000000" cx="835.9524" cy="-2232" rx="81.1496" ry="18"/>
<text text-anchor="middle" x="835.9524" y="-2227.8" font-family="Times,serif" font-size="14.00" fill="#000000">Performance testing</text>
</g>
<!-- skill_17&#45;&gt;skill_34 -->
<g id="edge18" class="edge">
<title>skill_17&#45;&gt;skill_34</title>
<path fill="none" stroke="#000000" d="M411.2985,-2209.1448C501.6654,-2214.0084 651.2475,-2222.0591 746.6255,-2227.1924"/>
<polygon fill="#000000" stroke="#000000" points="746.6564,-2230.699 756.8301,-2227.7416 747.0327,-2223.7091 746.6564,-2230.699"/>
</g>
<!-- skill_35 -->
<g id="skill_35" class="node">
<title>skill_35</title>
<ellipse fill="none" stroke="#000000" cx="835.9524" cy="-2178" rx="85.2255" ry="18"/>
<text text-anchor="middle" x="835.9524" y="-2173.8" font-family="Times,serif" font-size="14.00" fill="#000000">Testable Architecture</text>
</g>
<!-- skill_17&#45;&gt;skill_35 -->
<g id="edge19" class="edge">
<title>skill_17&#45;&gt;skill_35</title>
<path fill="none" stroke="#000000" d="M411.2985,-2200.8552C500.4729,-2196.0557 647.3099,-2188.1529 742.8215,-2183.0124"/>
<polygon fill="#000000" stroke="#000000" points="743.2549,-2186.4942 753.0524,-2182.4617 742.8787,-2179.5043 743.2549,-2186.4942"/>
</g>
<!-- skill_18 -->
<g id="skill_18" class="node">
<title>skill_18</title>
<ellipse fill="none" stroke="#000000" cx="334.2866" cy="-3034" rx="78.7539" ry="18"/>
<text text-anchor="middle" x="334.2866" y="-3029.8" font-family="Times,serif" font-size="14.00" fill="#000000">IS Security theory*</text>
</g>
<!-- skill_19 -->
<g id="skill_19" class="node">
<title>skill_19</title>
<ellipse fill="none" stroke="#000000" cx="334.2866" cy="-2844" rx="129.1928" ry="18"/>
<text text-anchor="middle" x="334.2866" y="-2839.8" font-family="Times,serif" font-size="14.00" fill="#000000">Software Development Workflow</text>
</g>
<!-- skill_20 -->
<g id="skill_20" class="node">
<title>skill_20</title>
<ellipse fill="none" stroke="#000000" cx="334.2866" cy="-1740" rx="109.6238" ry="18"/>
<text text-anchor="middle" x="334.2866" y="-1735.8" font-family="Times,serif" font-size="14.00" fill="#000000">Data Integration Principles*</text>
</g>
<!-- skill_20&#45;&gt;skill_9 -->
<g id="edge6" class="edge">
<title>skill_20&#45;&gt;skill_9</title>
<path fill="none" stroke="#000000" d="M334.2866,-1721.7902C334.2866,-1719.3082 334.2866,-1716.8262 334.2866,-1714.3443"/>
<polygon fill="#000000" stroke="#000000" points="337.7867,-1714.1406 334.2866,-1704.1406 330.7867,-1714.1407 337.7867,-1714.1406"/>
</g>
<!-- skill_20&#45;&gt;skill_12 -->
<g id="edge7" class="edge">
<title>skill_20&#45;&gt;skill_12</title>
<path fill="none" stroke="#000000" d="M334.2866,-1758.1406C334.2866,-1760.6226 334.2866,-1763.1046 334.2866,-1765.5865"/>
<polygon fill="#000000" stroke="#000000" points="330.7867,-1765.7901 334.2866,-1775.7902 337.7867,-1765.7902 330.7867,-1765.7901"/>
</g>
<!-- skill_29 -->
<g id="skill_29" class="node">
<title>skill_29</title>
<ellipse fill="none" stroke="#000000" cx="835.9524" cy="-1906" rx="102.3642" ry="18"/>
<text text-anchor="middle" x="835.9524" y="-1901.8" font-family="Times,serif" font-size="14.00" fill="#000000">Data Governance Patterns</text>
</g>
<!-- skill_20&#45;&gt;skill_29 -->
<g id="edge11" class="edge">
<title>skill_20&#45;&gt;skill_29</title>
<path fill="none" stroke="#000000" d="M398.822,-1725.3818C471.1854,-1713.0559 587.8925,-1705.9423 660.5732,-1767 698.2114,-1798.6191 653.0896,-1839.9808 688.5732,-1874 699.736,-1884.7021 713.5928,-1892.1693 728.3063,-1897.3246"/>
<polygon fill="#000000" stroke="#000000" points="727.49,-1900.7366 738.0791,-1900.3892 729.5846,-1894.0573 727.49,-1900.7366"/>
</g>
<!-- skill_21 -->
<g id="skill_21" class="node">
<title>skill_21</title>
<ellipse fill="none" stroke="#000000" cx="334.2866" cy="-1360" rx="77.2995" ry="18"/>
<text text-anchor="middle" x="334.2866" y="-1355.8" font-family="Times,serif" font-size="14.00" fill="#000000">Log Management*</text>
</g>
<!-- skill_21&#45;&gt;skill_46 -->
<g id="edge29" class="edge">
<title>skill_21&#45;&gt;skill_46</title>
<path fill="none" stroke="#000000" d="M409.0003,-1364.7212C564.1075,-1374.5226 920.8734,-1397.0669 1092.7849,-1407.9301"/>
<polygon fill="#000000" stroke="#000000" points="1092.6345,-1411.4275 1102.8353,-1408.5652 1093.076,-1404.4415 1092.6345,-1411.4275"/>
</g>
<!-- skill_22 -->
<g id="skill_22" class="node">
<title>skill_22</title>
<ellipse fill="none" stroke="#000000" cx="835.9524" cy="-2640" rx="64.2881" ry="18"/>
<text text-anchor="middle" x="835.9524" y="-2635.8" font-family="Times,serif" font-size="14.00" fill="#000000">System basics*</text>
</g>
<!-- skill_23 -->
<g id="skill_23" class="node">
<title>skill_23</title>
<ellipse fill="none" stroke="#000000" cx="835.9524" cy="-2586" rx="70.5443" ry="18"/>
<text text-anchor="middle" x="835.9524" y="-2581.8" font-family="Times,serif" font-size="14.00" fill="#000000">Network Basics*</text>
</g>
<!-- skill_23&#45;&gt;skill_50 -->
<g id="edge37" class="edge">
<title>skill_23&#45;&gt;skill_50</title>
<path fill="none" stroke="#000000" d="M903.4019,-2591.4504C1004.2037,-2599.7152 1200.1012,-2616.2373 1366.3505,-2633 1382.1626,-2634.5943 1398.8468,-2636.3737 1415.226,-2638.1761"/>
<polygon fill="#000000" stroke="#000000" points="1415.0499,-2641.6779 1425.3744,-2639.2998 1415.8204,-2634.7204 1415.0499,-2641.6779"/>
</g>
<!-- skill_24 -->
<g id="skill_24" class="node">
<title>skill_24</title>
<ellipse fill="none" stroke="#000000" cx="835.9524" cy="-1794" rx="133.7531" ry="18"/>
<text text-anchor="middle" x="835.9524" y="-1789.8" font-family="Times,serif" font-size="14.00" fill="#000000">Event&#45;Driven Architecture Basics*</text>
</g>
<!-- skill_42 -->
<g id="skill_42" class="node">
<title>skill_42</title>
<ellipse fill="none" stroke="#000000" cx="1188.841" cy="-1960" rx="74.4103" ry="18"/>
<text text-anchor="middle" x="1188.841" y="-1955.8" font-family="Times,serif" font-size="14.00" fill="#000000">Fast Data Patterns</text>
</g>
<!-- skill_24&#45;&gt;skill_42 -->
<g id="edge24" class="edge">
<title>skill_24&#45;&gt;skill_42</title>
<path fill="none" stroke="#000000" d="M914.932,-1808.6654C939.245,-1816.4076 964.529,-1828.171 983.3316,-1846 1013.6971,-1874.7932 986.485,-1907.0729 1019.3316,-1933 1043.4991,-1952.0763 1075.77,-1960.1524 1105.6667,-1963.0002"/>
<polygon fill="#000000" stroke="#000000" points="1105.46,-1966.4946 1115.6995,-1963.7739 1105.9982,-1959.5153 1105.46,-1966.4946"/>
</g>
<!-- skill_25 -->
<g id="skill_25" class="node">
<title>skill_25</title>
<ellipse fill="none" stroke="#000000" cx="835.9524" cy="-1686" rx="101.9743" ry="18"/>
<text text-anchor="middle" x="835.9524" y="-1681.8" font-family="Times,serif" font-size="14.00" fill="#000000">Web Architecture Basics*</text>
</g>
<!-- skill_25&#45;&gt;skill_41 -->
<g id="edge21" class="edge">
<title>skill_25&#45;&gt;skill_41</title>
<path fill="none" stroke="#000000" d="M933.7829,-1690.9901C993.3785,-1694.0299 1068.0142,-1697.8369 1121.1184,-1700.5456"/>
<polygon fill="#000000" stroke="#000000" points="1120.9425,-1704.0411 1131.1079,-1701.0552 1121.2992,-1697.0502 1120.9425,-1704.0411"/>
</g>
<!-- skill_27 -->
<g id="skill_27" class="node">
<title>skill_27</title>
<ellipse fill="none" stroke="#000000" cx="835.9524" cy="-1960" rx="112.0711" ry="18"/>
<text text-anchor="middle" x="835.9524" y="-1955.8" font-family="Times,serif" font-size="14.00" fill="#000000">Fast Data Streaming Basics*</text>
</g>
<!-- skill_27&#45;&gt;skill_42 -->
<g id="edge23" class="edge">
<title>skill_27&#45;&gt;skill_42</title>
<path fill="none" stroke="#000000" d="M948.0935,-1960C998.6714,-1960 1057.4158,-1960 1104.2143,-1960"/>
<polygon fill="#000000" stroke="#000000" points="1104.315,-1963.5001 1114.315,-1960 1104.3149,-1956.5001 1104.315,-1963.5001"/>
</g>
<!-- skill_28&#45;&gt;skill_29 -->
<g id="edge10" class="edge">
<title>skill_28&#45;&gt;skill_29</title>
<path fill="none" stroke="#000000" d="M391.4217,-2109.8338C463.4882,-2123.5909 586.874,-2134.3147 660.5732,-2069 706.7584,-2028.0692 644.4619,-1976.1577 688.5732,-1933 698.6726,-1923.119 711.1209,-1916.2155 724.4669,-1911.4708"/>
<polygon fill="#000000" stroke="#000000" points="725.8248,-1914.7133 734.3227,-1908.3858 723.7337,-1908.0329 725.8248,-1914.7133"/>
</g>
<!-- skill_28&#45;&gt;skill_35 -->
<g id="edge20" class="edge">
<title>skill_28&#45;&gt;skill_35</title>
<path fill="none" stroke="#000000" d="M404.6555,-2106.9778C470.7623,-2117.3469 572.427,-2133.4375 660.5732,-2148 693.0204,-2153.3605 728.8121,-2159.4511 759.5546,-2164.7373"/>
<polygon fill="#000000" stroke="#000000" points="759.3257,-2168.2493 769.7746,-2166.4969 760.5135,-2161.3508 759.3257,-2168.2493"/>
</g>
<!-- skill_30&#45;&gt;skill_46 -->
<g id="edge30" class="edge">
<title>skill_30&#45;&gt;skill_46</title>
<path fill="none" stroke="#000000" d="M903.5228,-1484.7265C928.6133,-1478.9722 957.2982,-1472.2958 983.3316,-1466 1030.4238,-1454.6115 1083.4281,-1441.1848 1123.8109,-1430.8278"/>
<polygon fill="#000000" stroke="#000000" points="1124.7169,-1434.2087 1133.532,-1428.3313 1122.9757,-1427.4287 1124.7169,-1434.2087"/>
</g>
<!-- skill_32&#45;&gt;skill_47 -->
<g id="edge31" class="edge">
<title>skill_32&#45;&gt;skill_47</title>
<path fill="none" stroke="#000000" d="M931.4492,-2314C955.5218,-2314 982.1609,-2314 1008.9069,-2314"/>
<polygon fill="#000000" stroke="#000000" points="1009.1577,-2317.5001 1019.1577,-2314 1009.1577,-2310.5001 1009.1577,-2317.5001"/>
</g>
<!-- skill_34&#45;&gt;skill_48 -->
<g id="edge34" class="edge">
<title>skill_34&#45;&gt;skill_48</title>
<path fill="none" stroke="#000000" d="M905.7336,-2241.2538C933.6728,-2248.4536 963.8016,-2261.252 983.3316,-2284 1039.3174,-2349.2109 958.1918,-2413.5948 1019.3316,-2474 1028.2226,-2482.7842 1038.7323,-2489.499 1050.0947,-2494.5861"/>
<polygon fill="#000000" stroke="#000000" points="1048.7918,-2497.8345 1059.3753,-2498.3253 1051.4079,-2491.3417 1048.7918,-2497.8345"/>
</g>
<!-- skill_35&#45;&gt;skill_48 -->
<g id="edge35" class="edge">
<title>skill_35&#45;&gt;skill_48</title>
<path fill="none" stroke="#000000" d="M920.7357,-2175.895C943.9145,-2179.5908 967.091,-2187.9579 983.3316,-2205 1066.5458,-2292.3209 935.8548,-2386.9302 1019.3316,-2474 1027.8148,-2482.8483 1037.9309,-2489.6314 1048.939,-2494.7839"/>
<polygon fill="#000000" stroke="#000000" points="1047.8034,-2498.1029 1058.3792,-2498.7381 1050.5078,-2491.6464 1047.8034,-2498.1029"/>
</g>
<!-- skill_36 -->
<g id="skill_36" class="node">
<title>skill_36</title>
<ellipse fill="none" stroke="#000000" cx="835.9524" cy="-2762" rx="94.7155" ry="18"/>
<text text-anchor="middle" x="835.9524" y="-2757.8" font-family="Times,serif" font-size="14.00" fill="#000000">Blameless Post Mortem</text>
</g>
<!-- skill_37 -->
<g id="skill_37" class="node">
<title>skill_37</title>
<ellipse fill="none" stroke="#000000" cx="835.9524" cy="-3088" rx="82.1273" ry="18"/>
<text text-anchor="middle" x="835.9524" y="-3083.8" font-family="Times,serif" font-size="14.00" fill="#000000">Identity propagation</text>
</g>
<!-- skill_38 -->
<g id="skill_38" class="node">
<title>skill_38</title>
<ellipse fill="none" stroke="#000000" cx="835.9524" cy="-3034" rx="138.1215" ry="18"/>
<text text-anchor="middle" x="835.9524" y="-3029.8" font-family="Times,serif" font-size="14.00" fill="#000000">Identity Access Management Basics</text>
</g>
<!-- skill_39 -->
<g id="skill_39" class="node">
<title>skill_39</title>
<ellipse fill="none" stroke="#000000" cx="1188.841" cy="-1604" rx="115.4364" ry="18"/>
<text text-anchor="middle" x="1188.841" y="-1599.8" font-family="Times,serif" font-size="14.00" fill="#000000">BigData Architecture Basics*</text>
</g>
<!-- skill_40 -->
<g id="skill_40" class="node">
<title>skill_40</title>
<ellipse fill="none" stroke="#000000" cx="835.9524" cy="-1554" rx="78.7617" ry="18"/>
<text text-anchor="middle" x="835.9524" y="-1549.8" font-family="Times,serif" font-size="14.00" fill="#000000">Scalability Patterns</text>
</g>
<!-- skill_40&#45;&gt;skill_34 -->
<g id="edge17" class="edge">
<title>skill_40&#45;&gt;skill_34</title>
<path fill="none" stroke="#000000" d="M794.1051,-1569.4396C755.1924,-1586.3101 699.5809,-1617.4471 674.5732,-1665 660.8424,-1691.1097 660.4372,-2170.1075 674.5732,-2196 689.0326,-2222.4848 718.8267,-2233.2893 748.9243,-2236.8251"/>
<polygon fill="#000000" stroke="#000000" points="748.844,-2240.3323 759.1213,-2237.7577 749.4816,-2233.3614 748.844,-2240.3323"/>
</g>
<!-- skill_40&#45;&gt;skill_45 -->
<g id="edge27" class="edge">
<title>skill_40&#45;&gt;skill_45</title>
<path fill="none" stroke="#000000" d="M914.7083,-1553.1073C967.3924,-1552.5101 1037.0441,-1551.7206 1092.9544,-1551.0869"/>
<polygon fill="#000000" stroke="#000000" points="1093.2674,-1554.5837 1103.227,-1550.9704 1093.1879,-1547.5841 1093.2674,-1554.5837"/>
</g>
<!-- skill_43 -->
<g id="skill_43" class="node">
<title>skill_43</title>
<ellipse fill="none" stroke="#000000" cx="1188.841" cy="-1496" rx="114.9432" ry="18"/>
<text text-anchor="middle" x="1188.841" y="-1491.8" font-family="Times,serif" font-size="14.00" fill="#000000">Distributed Data Architecture</text>
</g>
<!-- level__1 -->
<g id="node79" class="node">
<title>level__1</title>
<text text-anchor="middle" x="334.2866" y="-3157.8" font-family="Times,serif" font-size="14.00" fill="#000000">Beginner</text>
</g>
<!-- level__2 -->
<g id="node80" class="node">
<title>level__2</title>
<text text-anchor="middle" x="835.9524" y="-3157.8" font-family="Times,serif" font-size="14.00" fill="#000000">Experienced</text>
</g>
<!-- level__1&#45;&gt;level__2 -->
<g id="edge39" class="edge">
<title>level__1&#45;&gt;level__2</title>
<path fill="none" stroke="#000000" d="M367.9813,-3162C453.3631,-3162 678.7714,-3162 782.4236,-3162"/>
<polygon fill="#000000" stroke="#000000" points="782.6615,-3165.5001 792.6615,-3162 782.6614,-3158.5001 782.6615,-3165.5001"/>
</g>
<!-- level__3 -->
<g id="node81" class="node">
<title>level__3</title>
<text text-anchor="middle" x="1188.841" y="-3157.8" font-family="Times,serif" font-size="14.00" fill="#000000">Advanced</text>
</g>
<!-- level__2&#45;&gt;level__3 -->
<g id="edge40" class="edge">
<title>level__2&#45;&gt;level__3</title>
<path fill="none" stroke="#000000" d="M879.2235,-3162C946.0086,-3162 1073.6502,-3162 1142.3396,-3162"/>
<polygon fill="#000000" stroke="#000000" points="1142.4359,-3165.5001 1152.4358,-3162 1142.4358,-3158.5001 1142.4359,-3165.5001"/>
</g>
<!-- level__4 -->
<g id="node82" class="node">
<title>level__4</title>
<text text-anchor="middle" x="1525.5368" y="-3157.8" font-family="Times,serif" font-size="14.00" fill="#000000">Expert</text>
</g>
<!-- level__3&#45;&gt;level__4 -->
<g id="edge41" class="edge">
<title>level__3&#45;&gt;level__4</title>
<path fill="none" stroke="#000000" d="M1225.1933,-3162C1289.6237,-3162 1423.1814,-3162 1488.2639,-3162"/>
<polygon fill="#000000" stroke="#000000" points="1488.473,-3165.5001 1498.473,-3162 1488.4729,-3158.5001 1488.473,-3165.5001"/>
</g>
</g>
</svg>
