<?xml version="1.0" encoding="UTF-8" standalone="no"?>
<!DOCTYPE svg PUBLIC "-//W3C//DTD SVG 1.1//EN"
 "http://www.w3.org/Graphics/SVG/1.1/DTD/svg11.dtd">
<!-- Generated by graphviz version 2.44.1 (20200629.0846)
 -->
<!-- Title: G Pages: 1 -->
<svg width="412pt" height="341pt"
 viewBox="0.00 0.00 412.40 341.48" xmlns="http://www.w3.org/2000/svg" xmlns:xlink="http://www.w3.org/1999/xlink">
<g id="graph0" class="graph" transform="scale(1 1) rotate(0) translate(4 337.48)">
<title>G</title>
<polygon fill="white" stroke="transparent" points="-4,4 -4,-337.48 408.4,-337.48 408.4,4 -4,4"/>
<!-- n1 -->
<g id="node1" class="node">
<title>n1</title>
<ellipse fill="none" stroke="black" cx="276.25" cy="-315.48" rx="109.38" ry="18"/>
<text text-anchor="middle" x="276.25" y="-311.78" font-family="Times,serif" font-size="14.00">Arrêt du moteur demandé ?</text>
</g>
<!-- n2 -->
<g id="node2" class="node">
<title>n2</title>
<ellipse fill="none" stroke="black" cx="121.25" cy="-219.61" rx="72.66" ry="26.74"/>
<text text-anchor="middle" x="121.25" y="-223.41" font-family="Times,serif" font-size="14.00">Prochaine tâche</text>
<text text-anchor="middle" x="121.25" y="-208.41" font-family="Times,serif" font-size="14.00">à exécuter ?</text>
</g>
<!-- n1&#45;&gt;n2 -->
<g id="edge1" class="edge">
<title>n1&#45;&gt;n2</title>
<path fill="none" stroke="black" d="M248.9,-297.91C226.18,-284.15 193.38,-264.29 166.72,-248.14"/>
<polygon fill="black" stroke="black" points="168.3,-245.01 157.93,-242.82 164.68,-251 168.3,-245.01"/>
<text text-anchor="middle" x="228.25" y="-268.28" font-family="Times,serif" font-size="14.00">Non</text>
</g>
<!-- n3 -->
<g id="node5" class="node">
<title>n3</title>
<ellipse fill="none" stroke="black" cx="332.25" cy="-18" rx="72.29" ry="18"/>
<text text-anchor="middle" x="332.25" y="-14.3" font-family="Times,serif" font-size="14.00">Arrêter le worker</text>
</g>
<!-- n1&#45;&gt;n3 -->
<g id="edge6" class="edge">
<title>n1&#45;&gt;n3</title>
<path fill="none" stroke="black" d="M310.66,-298.27C330.57,-286.85 353.88,-269.49 365.25,-246.48 398.31,-179.63 365.52,-89.17 345.41,-45.18"/>
<polygon fill="black" stroke="black" points="348.52,-43.59 341.09,-36.03 342.19,-46.57 348.52,-43.59"/>
<text text-anchor="middle" x="389.75" y="-156.04" font-family="Times,serif" font-size="14.00">Oui</text>
</g>
<!-- n4 -->
<g id="node3" class="node">
<title>n4</title>
<ellipse fill="none" stroke="black" cx="276.25" cy="-99.87" rx="71.49" ry="18"/>
<text text-anchor="middle" x="276.25" y="-96.17" font-family="Times,serif" font-size="14.00">Exécuter la tâche</text>
</g>
<!-- n2&#45;&gt;n4 -->
<g id="edge4" class="edge">
<title>n2&#45;&gt;n4</title>
<path fill="none" stroke="black" d="M144.47,-193.88C150.07,-187.72 155.96,-181.06 161.25,-174.74 172.04,-161.85 171.2,-155.32 184.25,-144.74 196.89,-134.51 212.3,-125.97 226.88,-119.23"/>
<polygon fill="black" stroke="black" points="228.57,-122.31 236.29,-115.06 225.73,-115.9 228.57,-122.31"/>
<text text-anchor="middle" x="223.25" y="-156.04" font-family="Times,serif" font-size="14.00">Tâche trouvée</text>
</g>
<!-- n5 -->
<g id="node4" class="node">
<title>n5</title>
<ellipse fill="none" stroke="black" cx="45.25" cy="-99.87" rx="45.01" ry="26.74"/>
<text text-anchor="middle" x="45.25" y="-103.67" font-family="Times,serif" font-size="14.00">Worker</text>
<text text-anchor="middle" x="45.25" y="-88.67" font-family="Times,serif" font-size="14.00">en pause</text>
</g>
<!-- n2&#45;&gt;n5 -->
<g id="edge2" class="edge">
<title>n2&#45;&gt;n5</title>
<path fill="none" stroke="black" d="M58.49,-205.86C42.01,-199.36 26.11,-189.54 16.25,-174.74 7.74,-161.95 12.15,-146.28 19.84,-132.66"/>
<polygon fill="black" stroke="black" points="22.89,-134.39 25.27,-124.07 16.97,-130.66 22.89,-134.39"/>
<text text-anchor="middle" x="34.25" y="-163.54" font-family="Times,serif" font-size="14.00">Pas de</text>
<text text-anchor="middle" x="34.25" y="-148.54" font-family="Times,serif" font-size="14.00">tâche</text>
</g>
<!-- n4&#45;&gt;n1 -->
<g id="edge5" class="edge">
<title>n4&#45;&gt;n1</title>
<path fill="none" stroke="black" d="M276.25,-118.07C276.25,-155.1 276.25,-242.59 276.25,-287.24"/>
<polygon fill="black" stroke="black" points="272.75,-287.36 276.25,-297.36 279.75,-287.36 272.75,-287.36"/>
<text text-anchor="middle" x="318.75" y="-215.91" font-family="Times,serif" font-size="14.00">Tâche exécutée</text>
</g>
<!-- n4&#45;&gt;n3 -->
<!-- n5&#45;&gt;n2 -->
<g id="edge3" class="edge">
<title>n5&#45;&gt;n2</title>
<path fill="none" stroke="black" d="M52.66,-126.47C57.67,-141.34 65.21,-159.98 75.25,-174.74 78.21,-179.08 81.65,-183.32 85.29,-187.34"/>
<polygon fill="black" stroke="black" points="83.02,-190.03 92.49,-194.8 88.06,-185.17 83.02,-190.03"/>
<text text-anchor="middle" x="118.25" y="-156.04" font-family="Times,serif" font-size="14.00">Worker réveillé</text>
</g>
</g>
</svg>
