<?xml version="1.0" encoding="UTF-8" standalone="no"?>
<!DOCTYPE svg PUBLIC "-//W3C//DTD SVG 1.1//EN"
 "http://www.w3.org/Graphics/SVG/1.1/DTD/svg11.dtd">
<!-- Generated by graphviz version 2.44.1 (20200629.0846)
 -->
<!-- Title: G Pages: 1 -->
<svg width="393pt" height="341pt"
 viewBox="0.00 0.00 392.97 341.48" xmlns="http://www.w3.org/2000/svg" xmlns:xlink="http://www.w3.org/1999/xlink">
<g id="graph0" class="graph" transform="scale(1 1) rotate(0) translate(4 337.48)">
<title>G</title>
<polygon fill="white" stroke="transparent" points="-4,4 -4,-337.48 388.97,-337.48 388.97,4 -4,4"/>
<!-- n1 -->
<g id="node1" class="node">
<title>n1</title>
<ellipse fill="none" stroke="black" cx="257.97" cy="-315.48" rx="109.38" ry="18"/>
<text text-anchor="middle" x="257.97" y="-311.78" font-family="Times,serif" font-size="14.00">Arrêt du moteur demandé ?</text>
</g>
<!-- n2 -->
<g id="node2" class="node">
<title>n2</title>
<ellipse fill="none" stroke="black" cx="176.97" cy="-219.61" rx="72.66" ry="26.74"/>
<text text-anchor="middle" x="176.97" y="-223.41" font-family="Times,serif" font-size="14.00">Prochaine tâche</text>
<text text-anchor="middle" x="176.97" y="-208.41" font-family="Times,serif" font-size="14.00">à exécuter ?</text>
</g>
<!-- n1&#45;&gt;n2 -->
<g id="edge1" class="edge">
<title>n1&#45;&gt;n2</title>
<path fill="none" stroke="black" d="M243.11,-297.26C232.55,-285.03 218.04,-268.21 205.31,-253.45"/>
<polygon fill="black" stroke="black" points="207.63,-250.78 198.45,-245.5 202.33,-255.36 207.63,-250.78"/>
<text text-anchor="middle" x="239.97" y="-268.28" font-family="Times,serif" font-size="14.00">Non</text>
</g>
<!-- n3 -->
<g id="node5" class="node">
<title>n3</title>
<ellipse fill="none" stroke="black" cx="266.97" cy="-18" rx="72.29" ry="18"/>
<text text-anchor="middle" x="266.97" y="-14.3" font-family="Times,serif" font-size="14.00">Arrêter le worker</text>
</g>
<!-- n1&#45;&gt;n3 -->
<g id="edge6" class="edge">
<title>n1&#45;&gt;n3</title>
<path fill="none" stroke="black" d="M299.46,-298.72C322.02,-287.77 347.92,-270.73 360.97,-246.48 383.39,-204.81 339.08,-84.41 331.97,-73 324.22,-60.58 312.64,-49.64 301.39,-40.91"/>
<polygon fill="black" stroke="black" points="303.44,-38.07 293.31,-34.95 299.29,-43.7 303.44,-38.07"/>
<text text-anchor="middle" x="374.47" y="-156.04" font-family="Times,serif" font-size="14.00">Oui</text>
</g>
<!-- n4 -->
<g id="node3" class="node">
<title>n4</title>
<ellipse fill="none" stroke="black" cx="133.97" cy="-99.87" rx="71.49" ry="18"/>
<text text-anchor="middle" x="133.97" y="-96.17" font-family="Times,serif" font-size="14.00">Exécuter la tâche</text>
</g>
<!-- n2&#45;&gt;n4 -->
<g id="edge4" class="edge">
<title>n2&#45;&gt;n4</title>
<path fill="none" stroke="black" d="M147.95,-194.57C142.68,-188.67 137.93,-181.96 134.97,-174.74 129.01,-160.17 128.53,-142.6 129.65,-128.24"/>
<polygon fill="black" stroke="black" points="133.16,-128.32 130.75,-118 126.2,-127.57 133.16,-128.32"/>
<text text-anchor="middle" x="173.97" y="-156.04" font-family="Times,serif" font-size="14.00">Tâche trouvée</text>
</g>
<!-- n5 -->
<g id="node4" class="node">
<title>n5</title>
<ellipse fill="none" stroke="black" cx="277.97" cy="-99.87" rx="45.01" ry="26.74"/>
<text text-anchor="middle" x="277.97" y="-103.67" font-family="Times,serif" font-size="14.00">Worker</text>
<text text-anchor="middle" x="277.97" y="-88.67" font-family="Times,serif" font-size="14.00">en pause</text>
</g>
<!-- n2&#45;&gt;n5 -->
<g id="edge2" class="edge">
<title>n2&#45;&gt;n5</title>
<path fill="none" stroke="black" d="M197.67,-193.67C202.72,-187.51 208.07,-180.92 212.97,-174.74 223.41,-161.58 225.03,-157.49 235.97,-144.74 239.84,-140.23 244.04,-135.58 248.24,-131.06"/>
<polygon fill="black" stroke="black" points="250.92,-133.32 255.25,-123.65 245.84,-128.51 250.92,-133.32"/>
<text text-anchor="middle" x="253.97" y="-163.54" font-family="Times,serif" font-size="14.00">Pas de</text>
<text text-anchor="middle" x="253.97" y="-148.54" font-family="Times,serif" font-size="14.00">tâche</text>
</g>
<!-- n4&#45;&gt;n1 -->
<g id="edge5" class="edge">
<title>n4&#45;&gt;n1</title>
<path fill="none" stroke="black" d="M103.21,-116.35C55.39,-142.47 -27.59,-197.24 9.97,-246.48 29.44,-272 105.29,-290.31 168.04,-301.45"/>
<polygon fill="black" stroke="black" points="167.53,-304.92 177.99,-303.18 168.73,-298.02 167.53,-304.92"/>
<text text-anchor="middle" x="52.47" y="-215.91" font-family="Times,serif" font-size="14.00">Tâche exécutée</text>
</g>
<!-- n4&#45;&gt;n3 -->
<!-- n5&#45;&gt;n1 -->
<g id="edge3" class="edge">
<title>n5&#45;&gt;n1</title>
<path fill="none" stroke="black" d="M275.98,-126.86C274.86,-141.02 273.41,-158.85 271.97,-174.74 268.43,-213.75 263.82,-258.84 260.88,-287.01"/>
<polygon fill="black" stroke="black" points="257.36,-286.97 259.8,-297.28 264.32,-287.7 257.36,-286.97"/>
<text text-anchor="middle" x="313.97" y="-215.91" font-family="Times,serif" font-size="14.00">Worker réveillé</text>
</g>
</g>
</svg>
