<?xml version="1.0" encoding="UTF-8" standalone="no"?>
<!DOCTYPE svg PUBLIC "-//W3C//DTD SVG 1.1//EN"
 "http://www.w3.org/Graphics/SVG/1.1/DTD/svg11.dtd">
<!-- Generated by graphviz version 2.44.1 (20200629.0846)
 -->
<!-- Title: G Pages: 1 -->
<svg width="431pt" height="291pt"
 viewBox="0.00 0.00 431.34 291.00" xmlns="http://www.w3.org/2000/svg" xmlns:xlink="http://www.w3.org/1999/xlink">
<g id="graph0" class="graph" transform="scale(1 1) rotate(0) translate(4 287)">
<title>G</title>
<polygon fill="white" stroke="transparent" points="-4,4 -4,-287 427.34,-287 427.34,4 -4,4"/>
<!-- n1 -->
<g id="node1" class="node">
<title>n1</title>
<ellipse fill="none" stroke="black" cx="167.34" cy="-265" rx="161.37" ry="18"/>
<text text-anchor="middle" x="167.34" y="-261.3" font-family="Times,serif" font-size="14.00">Vérifier si l&#39;arrêt du moteur a été demandé</text>
</g>
<!-- n2 -->
<g id="node2" class="node">
<title>n2</title>
<ellipse fill="none" stroke="black" cx="167.34" cy="-178" rx="148.37" ry="18"/>
<text text-anchor="middle" x="167.34" y="-174.3" font-family="Times,serif" font-size="14.00">Chercher la prochaine tâche à exécuter</text>
</g>
<!-- n1&#45;&gt;n2 -->
<g id="edge1" class="edge">
<title>n1&#45;&gt;n2</title>
<path fill="none" stroke="black" d="M167.34,-246.8C167.34,-235.16 167.34,-219.55 167.34,-206.24"/>
<polygon fill="black" stroke="black" points="170.84,-206.18 167.34,-196.18 163.84,-206.18 170.84,-206.18"/>
<text text-anchor="middle" x="220.34" y="-217.8" font-family="Times,serif" font-size="14.00">Arrêt non demandé</text>
</g>
<!-- n3 -->
<g id="node3" class="node">
<title>n3</title>
<ellipse fill="none" stroke="black" cx="115.34" cy="-18" rx="72.29" ry="18"/>
<text text-anchor="middle" x="115.34" y="-14.3" font-family="Times,serif" font-size="14.00">Arrêter le worker</text>
</g>
<!-- n1&#45;&gt;n3 -->
<g id="edge2" class="edge">
<title>n1&#45;&gt;n3</title>
<path fill="none" stroke="black" d="M89.07,-249.26C59.22,-239.41 28.12,-223.06 10.34,-196 -25.23,-141.82 42.34,-75.55 84.73,-41.53"/>
<polygon fill="black" stroke="black" points="87.13,-44.09 92.84,-35.16 82.81,-38.59 87.13,-44.09"/>
<text text-anchor="middle" x="50.34" y="-130.8" font-family="Times,serif" font-size="14.00">Arrêt demandé</text>
</g>
<!-- n2&#45;&gt;n3 -->
<g id="edge3" class="edge">
<title>n2&#45;&gt;n3</title>
<path fill="none" stroke="black" d="M153.41,-159.99C143.51,-146.89 130.85,-127.88 124.34,-109 117.37,-88.74 115.27,-64.51 114.83,-46.3"/>
<polygon fill="black" stroke="black" points="118.33,-46.05 114.75,-36.08 111.33,-46.11 118.33,-46.05"/>
<text text-anchor="middle" x="183.84" y="-87.3" font-family="Times,serif" font-size="14.00">Aucune tâche trouvée</text>
</g>
<!-- n4 -->
<g id="node4" class="node">
<title>n4</title>
<ellipse fill="none" stroke="black" cx="323.34" cy="-91" rx="71.49" ry="18"/>
<text text-anchor="middle" x="323.34" y="-87.3" font-family="Times,serif" font-size="14.00">Exécuter la tâche</text>
</g>
<!-- n2&#45;&gt;n4 -->
<g id="edge4" class="edge">
<title>n2&#45;&gt;n4</title>
<path fill="none" stroke="black" d="M198.17,-160.21C223.27,-146.53 258.81,-127.17 285.61,-112.56"/>
<polygon fill="black" stroke="black" points="287.59,-115.47 294.69,-107.61 284.24,-109.32 287.59,-115.47"/>
<text text-anchor="middle" x="293.34" y="-130.8" font-family="Times,serif" font-size="14.00">Tâche trouvée</text>
</g>
<!-- n4&#45;&gt;n1 -->
<g id="edge5" class="edge">
<title>n4&#45;&gt;n1</title>
<path fill="none" stroke="black" d="M331.08,-109.1C333.23,-114.69 335.27,-121 336.34,-127 341.85,-157.64 341.63,-170.11 324.34,-196 308.26,-220.09 281.66,-235.69 254.88,-245.78"/>
<polygon fill="black" stroke="black" points="253.68,-242.49 245.41,-249.12 256.01,-249.09 253.68,-242.49"/>
<text text-anchor="middle" x="380.84" y="-174.3" font-family="Times,serif" font-size="14.00">Tâche exécutée</text>
</g>
<!-- n4&#45;&gt;n3 -->
</g>
</svg>
