<?xml version="1.0" encoding="UTF-8" standalone="no"?>
<!DOCTYPE svg PUBLIC "-//W3C//DTD SVG 1.1//EN"
 "http://www.w3.org/Graphics/SVG/1.1/DTD/svg11.dtd">
<!-- Generated by graphviz version 2.44.1 (20200629.0846)
 -->
<!-- Title: G Pages: 1 -->
<svg width="729pt" height="291pt"
 viewBox="0.00 0.00 729.34 291.00" xmlns="http://www.w3.org/2000/svg" xmlns:xlink="http://www.w3.org/1999/xlink">
<g id="graph0" class="graph" transform="scale(1 1) rotate(0) translate(4 287)">
<title>G</title>
<polygon fill="white" stroke="transparent" points="-4,4 -4,-287 725.34,-287 725.34,4 -4,4"/>
<!-- n1 -->
<g id="node1" class="node">
<title>n1</title>
<ellipse fill="none" stroke="black" cx="375.34" cy="-265" rx="161.37" ry="18"/>
<text text-anchor="middle" x="375.34" y="-261.3" font-family="Times,serif" font-size="14.00">Vérifier si l&#39;arrêt du moteur a été demandé</text>
</g>
<!-- n2 -->
<g id="node2" class="node">
<title>n2</title>
<ellipse fill="none" stroke="black" cx="252.34" cy="-178" rx="148.37" ry="18"/>
<text text-anchor="middle" x="252.34" y="-174.3" font-family="Times,serif" font-size="14.00">Chercher la prochaine tâche à exécuter</text>
</g>
<!-- n1&#45;&gt;n2 -->
<g id="edge1" class="edge">
<title>n1&#45;&gt;n2</title>
<path fill="none" stroke="black" d="M345.47,-247.28C335.99,-241.71 325.58,-235.31 316.34,-229 304.28,-220.76 291.5,-211 280.55,-202.3"/>
<polygon fill="black" stroke="black" points="282.58,-199.44 272.59,-195.9 278.19,-204.89 282.58,-199.44"/>
<text text-anchor="middle" x="369.34" y="-217.8" font-family="Times,serif" font-size="14.00">Arrêt non demandé</text>
</g>
<!-- n3 -->
<g id="node5" class="node">
<title>n3</title>
<ellipse fill="none" stroke="black" cx="430.34" cy="-18" rx="72.29" ry="18"/>
<text text-anchor="middle" x="430.34" y="-14.3" font-family="Times,serif" font-size="14.00">Arrêter le worker</text>
</g>
<!-- n1&#45;&gt;n3 -->
<g id="edge6" class="edge">
<title>n1&#45;&gt;n3</title>
<path fill="none" stroke="black" d="M473.37,-250.71C537.7,-239.74 613.48,-221.78 633.34,-196 686.16,-127.45 556.49,-65.5 480.6,-36.44"/>
<polygon fill="black" stroke="black" points="481.77,-33.14 471.18,-32.9 479.3,-39.69 481.77,-33.14"/>
<text text-anchor="middle" x="680.34" y="-130.8" font-family="Times,serif" font-size="14.00">Arrêt demandé</text>
</g>
<!-- n4 -->
<g id="node3" class="node">
<title>n4</title>
<ellipse fill="none" stroke="black" cx="201.34" cy="-91" rx="71.49" ry="18"/>
<text text-anchor="middle" x="201.34" y="-87.3" font-family="Times,serif" font-size="14.00">Exécuter la tâche</text>
</g>
<!-- n2&#45;&gt;n4 -->
<g id="edge4" class="edge">
<title>n2&#45;&gt;n4</title>
<path fill="none" stroke="black" d="M219.08,-160.34C212.39,-155.39 206.23,-149.29 202.34,-142 198.69,-135.15 197.46,-126.99 197.42,-119.27"/>
<polygon fill="black" stroke="black" points="200.92,-119.35 197.97,-109.18 193.93,-118.97 200.92,-119.35"/>
<text text-anchor="middle" x="241.34" y="-130.8" font-family="Times,serif" font-size="14.00">Tâche trouvée</text>
</g>
<!-- n5 -->
<g id="node4" class="node">
<title>n5</title>
<ellipse fill="none" stroke="black" cx="415.34" cy="-91" rx="103.98" ry="18"/>
<text text-anchor="middle" x="415.34" y="-87.3" font-family="Times,serif" font-size="14.00">Mettre le worker en pause</text>
</g>
<!-- n2&#45;&gt;n5 -->
<g id="edge2" class="edge">
<title>n2&#45;&gt;n5</title>
<path fill="none" stroke="black" d="M265.91,-160.05C275.38,-149.23 288.87,-135.66 303.34,-127 315.84,-119.52 330.09,-113.49 344.14,-108.68"/>
<polygon fill="black" stroke="black" points="345.39,-111.96 353.82,-105.54 343.23,-105.3 345.39,-111.96"/>
<text text-anchor="middle" x="362.84" y="-130.8" font-family="Times,serif" font-size="14.00">Aucune tâche trouvée</text>
</g>
<!-- n4&#45;&gt;n1 -->
<g id="edge5" class="edge">
<title>n4&#45;&gt;n1</title>
<path fill="none" stroke="black" d="M143.09,-101.44C72.57,-115.33 -31.83,-145.25 10.34,-196 38,-229.3 137.13,-246.37 225.1,-255.08"/>
<polygon fill="black" stroke="black" points="224.93,-258.58 235.22,-256.05 225.6,-251.62 224.93,-258.58"/>
<text text-anchor="middle" x="52.84" y="-174.3" font-family="Times,serif" font-size="14.00">Tâche exécutée</text>
</g>
<!-- n4&#45;&gt;n3 -->
<!-- n5&#45;&gt;n1 -->
<g id="edge3" class="edge">
<title>n5&#45;&gt;n1</title>
<path fill="none" stroke="black" d="M421.35,-109.12C429.78,-136.2 442,-189.84 422.34,-229 420.28,-233.1 417.49,-236.84 414.28,-240.22"/>
<polygon fill="black" stroke="black" points="411.81,-237.75 406.74,-247.05 416.5,-242.94 411.81,-237.75"/>
<text text-anchor="middle" x="531.34" y="-174.3" font-family="Times,serif" font-size="14.00">Worker réveillé par une notification</text>
</g>
</g>
</svg>
