<?xml version="1.0" encoding="UTF-8" standalone="no"?>
<!DOCTYPE svg PUBLIC "-//W3C//DTD SVG 1.1//EN"
 "http://www.w3.org/Graphics/SVG/1.1/DTD/svg11.dtd">
<!-- Generated by graphviz version 2.44.1 (20200629.0846)
 -->
<!-- Title: G Pages: 1 -->
<svg width="309pt" height="309pt"
 viewBox="0.00 0.00 309.14 308.74" xmlns="http://www.w3.org/2000/svg" xmlns:xlink="http://www.w3.org/1999/xlink">
<g id="graph0" class="graph" transform="scale(1 1) rotate(0) translate(4 304.74)">
<title>G</title>
<polygon fill="white" stroke="transparent" points="-4,4 -4,-304.74 305.14,-304.74 305.14,4 -4,4"/>
<!-- n1 -->
<g id="node1" class="node">
<title>n1</title>
<ellipse fill="none" stroke="black" cx="116.14" cy="-282.74" rx="109.38" ry="18"/>
<text text-anchor="middle" x="116.14" y="-279.04" font-family="Times,serif" font-size="14.00">Arrêt du moteur demandé ?</text>
</g>
<!-- n2 -->
<g id="node2" class="node">
<title>n2</title>
<ellipse fill="none" stroke="black" cx="116.14" cy="-186.87" rx="72.66" ry="26.74"/>
<text text-anchor="middle" x="116.14" y="-190.67" font-family="Times,serif" font-size="14.00">Prochaine tâche</text>
<text text-anchor="middle" x="116.14" y="-175.67" font-family="Times,serif" font-size="14.00">à exécuter ?</text>
</g>
<!-- n1&#45;&gt;n2 -->
<g id="edge1" class="edge">
<title>n1&#45;&gt;n2</title>
<path fill="none" stroke="black" d="M116.14,-264.52C116.14,-253.22 116.14,-238.01 116.14,-224.12"/>
<polygon fill="black" stroke="black" points="119.64,-223.84 116.14,-213.84 112.64,-223.84 119.64,-223.84"/>
<text text-anchor="middle" x="128.14" y="-235.54" font-family="Times,serif" font-size="14.00">Non</text>
</g>
<!-- n3 -->
<g id="node3" class="node">
<title>n3</title>
<ellipse fill="none" stroke="black" cx="72.14" cy="-18" rx="72.29" ry="18"/>
<text text-anchor="middle" x="72.14" y="-14.3" font-family="Times,serif" font-size="14.00">Arrêter le worker</text>
</g>
<!-- n1&#45;&gt;n3 -->
<g id="edge2" class="edge">
<title>n1&#45;&gt;n3</title>
<path fill="none" stroke="black" d="M85.2,-265.41C66.66,-253.75 44.68,-236.17 34.14,-213.74 7.68,-157.41 37.5,-83.58 57.34,-45.02"/>
<polygon fill="black" stroke="black" points="60.53,-46.48 62.13,-36.01 54.35,-43.2 60.53,-46.48"/>
<text text-anchor="middle" x="38.64" y="-130.8" font-family="Times,serif" font-size="14.00">Oui</text>
</g>
<!-- n2&#45;&gt;n3 -->
<g id="edge3" class="edge">
<title>n2&#45;&gt;n3</title>
<path fill="none" stroke="black" d="M101.96,-160.33C94.51,-145.74 85.96,-126.84 81.14,-109 75.6,-88.44 73.4,-64.4 72.56,-46.35"/>
<polygon fill="black" stroke="black" points="76.06,-46.09 72.2,-36.22 69.06,-46.34 76.06,-46.09"/>
<text text-anchor="middle" x="99.14" y="-94.8" font-family="Times,serif" font-size="14.00">Pas de</text>
<text text-anchor="middle" x="99.14" y="-79.8" font-family="Times,serif" font-size="14.00">tâche</text>
</g>
<!-- n4 -->
<g id="node4" class="node">
<title>n4</title>
<ellipse fill="none" stroke="black" cx="197.14" cy="-91" rx="71.49" ry="18"/>
<text text-anchor="middle" x="197.14" y="-87.3" font-family="Times,serif" font-size="14.00">Exécuter la tâche</text>
</g>
<!-- n2&#45;&gt;n4 -->
<g id="edge4" class="edge">
<title>n2&#45;&gt;n4</title>
<path fill="none" stroke="black" d="M119.16,-159.77C121.51,-148.73 125.69,-136.3 133.14,-127 137.88,-121.09 143.9,-116.03 150.34,-111.75"/>
<polygon fill="black" stroke="black" points="152.52,-114.52 159.3,-106.38 148.93,-108.51 152.52,-114.52"/>
<text text-anchor="middle" x="172.14" y="-130.8" font-family="Times,serif" font-size="14.00">Tâche trouvée</text>
</g>
<!-- n4&#45;&gt;n1 -->
<g id="edge5" class="edge">
<title>n4&#45;&gt;n1</title>
<path fill="none" stroke="black" d="M205.47,-109.05C207.78,-114.64 209.98,-120.96 211.14,-127 218.52,-165.28 217.81,-180.08 198.14,-213.74 187.34,-232.23 169.53,-247.91 153.26,-259.54"/>
<polygon fill="black" stroke="black" points="151.21,-256.7 144.94,-265.24 155.17,-262.47 151.21,-256.7"/>
<text text-anchor="middle" x="258.64" y="-183.17" font-family="Times,serif" font-size="14.00">Tâche exécutée</text>
</g>
<!-- n4&#45;&gt;n3 -->
</g>
</svg>
