<?xml version="1.0" encoding="UTF-8" standalone="no"?>
<!DOCTYPE svg PUBLIC "-//W3C//DTD SVG 1.1//EN"
 "http://www.w3.org/Graphics/SVG/1.1/DTD/svg11.dtd">
<!-- Generated by graphviz version 2.40.1 (20161225.0304)
 -->
<!-- Title: G Pages: 1 -->
<svg width="344pt" height="260pt"
 viewBox="0.00 0.00 344.15 260.00" xmlns="http://www.w3.org/2000/svg" xmlns:xlink="http://www.w3.org/1999/xlink">
<g id="graph0" class="graph" transform="scale(1 1) rotate(0) translate(4 256)">
<title>G</title>
<polygon fill="#ffffff" stroke="transparent" points="-4,4 -4,-256 340.1505,-256 340.1505,4 -4,4"/>
<!-- s -->
<g id="node1" class="node">
<title>s</title>
<ellipse fill="none" stroke="#000000" cx="199.7678" cy="-234" rx="136.2655" ry="18"/>
<text text-anchor="middle" x="199.7678" y="-229.8" font-family="Times,serif" font-size="14.00" fill="#000000">Sélectionner la prochaine tâche</text>
</g>
<!-- pre -->
<g id="node2" class="node">
<title>pre</title>
<ellipse fill="none" stroke="#000000" cx="123.7678" cy="-162" rx="123.5361" ry="18"/>
<text text-anchor="middle" x="123.7678" y="-157.8" font-family="Times,serif" font-size="14.00" fill="#000000">Effectuer des pré&#45;traitements</text>
</g>
<!-- s&#45;&gt;pre -->
<g id="edge1" class="edge">
<title>s&#45;&gt;pre</title>
<path fill="none" stroke="#000000" d="M180.5898,-215.8314C171.3389,-207.0673 160.097,-196.4171 150.062,-186.9103"/>
<polygon fill="#000000" stroke="#000000" points="152.3431,-184.25 142.6764,-179.9134 147.5289,-189.3317 152.3431,-184.25"/>
</g>
<!-- x -->
<g id="node3" class="node">
<title>x</title>
<ellipse fill="none" stroke="#000000" cx="144.7678" cy="-90" rx="81.8891" ry="18"/>
<text text-anchor="middle" x="144.7678" y="-85.8" font-family="Times,serif" font-size="14.00" fill="#000000">Exécuter la tâche</text>
</g>
<!-- pre&#45;&gt;x -->
<g id="edge2" class="edge">
<title>pre&#45;&gt;x</title>
<path fill="none" stroke="#000000" d="M129.067,-143.8314C131.3376,-136.0463 134.0424,-126.7729 136.5619,-118.1347"/>
<polygon fill="#000000" stroke="#000000" points="139.9572,-118.9933 139.3973,-108.4133 133.2372,-117.0332 139.9572,-118.9933"/>
</g>
<!-- post -->
<g id="node4" class="node">
<title>post</title>
<ellipse fill="none" stroke="#000000" cx="199.7678" cy="-18" rx="126.7375" ry="18"/>
<text text-anchor="middle" x="199.7678" y="-13.8" font-family="Times,serif" font-size="14.00" fill="#000000">Effectuer des post&#45;traitements</text>
</g>
<!-- x&#45;&gt;post -->
<g id="edge3" class="edge">
<title>x&#45;&gt;post</title>
<path fill="none" stroke="#000000" d="M158.3633,-72.2022C164.7931,-63.7851 172.599,-53.5665 179.6925,-44.2805"/>
<polygon fill="#000000" stroke="#000000" points="182.6576,-46.1645 185.9467,-36.0931 177.0949,-41.9152 182.6576,-46.1645"/>
</g>
<!-- post&#45;&gt;s -->
<g id="edge4" class="edge">
<title>post&#45;&gt;s</title>
<path fill="none" stroke="#000000" d="M215.1375,-36.2865C238.6613,-66.6216 278.6802,-129.0566 256.7678,-180 251.8866,-191.3483 243.3181,-201.4291 234.2847,-209.7177"/>
<polygon fill="#000000" stroke="#000000" points="231.9783,-207.0848 226.6581,-216.2471 236.5307,-212.4023 231.9783,-207.0848"/>
</g>
</g>
</svg>